<?xml version="1.0" standalone="no"?>
<!DOCTYPE svg PUBLIC "-//W3C//DTD SVG 1.1//EN" "http://www.w3.org/Graphics/SVG/1.1/DTD/svg11.dtd" >
<svg xmlns="http://www.w3.org/2000/svg" xmlns:xlink="http://www.w3.org/1999/xlink" version="1.1">
<metadata>
Created by FontForge 20170731 at Mon Nov 26 16:48:31 2012
 By ,,,
Copyright (c) 2012 by Mariya Chughtai. All rights reserved.
</metadata>
<defs>
<font id="Baufra-Medium" horiz-adv-x="754" >
  <font-face 
    font-family="Baufra Medium"
    font-weight="500"
    font-stretch="normal"
    units-per-em="1000"
    panose-1="0 0 6 0 0 0 0 0 0 0"
    ascent="750"
    descent="-250"
    x-height="500"
    cap-height="700"
    bbox="-34 -211 1123 991"
    underline-thickness="50"
    underline-position="-200"
    unicode-range="U+0020-FB02"
  />
<missing-glyph horiz-adv-x="250" 
 />
    <glyph glyph-name="fi" unicode="fi" horiz-adv-x="533" 
d="M270 708h54v-55h-54q-20 0 -37 -7t-28 -21.5t-11 -34.5v-90h120v-59h-120v-441h-62v441h-82v59h82v90q0 54 38.5 86t99.5 32zM407.5 577q-16.5 0 -28 11.5t-11.5 28t11.5 28t28 11.5t28 -11.5t11.5 -28t-11.5 -28t-28 -11.5zM377 0v500h61v-500h-61z" />
    <glyph glyph-name="fl" unicode="fl" horiz-adv-x="524" 
d="M270 708h54v-55h-54q-20 0 -37 -7t-28 -21.5t-11 -34.5v-90h120v-59h-120v-441h-62v441h-82v59h82v90q0 54 38.5 86t99.5 32zM385 0v700h61v-700h-61z" />
    <glyph glyph-name=".notdef" horiz-adv-x="250" 
 />
    <glyph glyph-name=".null" horiz-adv-x="0" 
 />
    <glyph glyph-name="nonmarkingreturn" horiz-adv-x="333" 
 />
    <glyph glyph-name="space" unicode=" " horiz-adv-x="393" 
 />
    <glyph glyph-name="exclam" unicode="!" horiz-adv-x="183" 
d="M61 701h62v-541h-62v541zM91.5 -10q-17.5 0 -29.5 12t-12 29q0 18 12.5 30t29.5 12t29 -12t12 -30q0 -17 -12 -29t-29.5 -12z" />
    <glyph glyph-name="quotedbl" unicode="&#x22;" horiz-adv-x="305" 
d="M93 709q17 0 29 -12.5t12 -29.5q0 -5 -1 -11.5t-3.5 -16t-8.5 -18.5t-14.5 -16.5t-22.5 -12t-31 -4.5q24 18 33 38q-15 3 -25 14.5t-10 26.5q0 17 12.5 29.5t29.5 12.5zM214 709q17 0 29.5 -12.5t12.5 -29.5q0 -9 -3 -20t-10.5 -25.5t-25.5 -24t-43 -9.5q24 18 34 38
q-15 3 -25 14.5t-10 26.5q0 17 12 29.5t29 12.5z" />
    <glyph glyph-name="numbersign" unicode="#" horiz-adv-x="673" 
d="M610 405h-132l-29 -135h133l-13 -60h-133l-44 -210h-63l45 210h-133l-45 -210h-62l44 210h-128l13 60h128l29 135h-128l14 61h127l50 234h62l-50 -234h133l50 234h63l-50 -234h133zM387 270l28 135h-133l-29 -135h134z" />
    <glyph glyph-name="dollar" unicode="$" horiz-adv-x="527" 
d="M240 750h40v-44q97 -7 147 -55l-40 -44q-34 30 -107 37v-255l16 -5q179 -49 179 -207q0 -79 -55 -129t-140 -56v-47h-40v47q-50 4 -101 24t-83 57l40 45q24 -28 65 -44.5t79 -19.5v286l-14 4q-166 52 -166 175q0 46 16.5 82t43.5 57.5t57.5 33.5t62.5 15v43zM240 403v238
q-19 -3 -37 -10.5t-36 -21t-29.5 -36.5t-11.5 -52q0 -80 114 -118zM280 326v-271q58 6 95 39.5t37 82.5q0 58 -30.5 92.5t-101.5 56.5z" />
    <glyph glyph-name="percent" unicode="%" horiz-adv-x="714" 
d="M194 709q56 0 96 -40t40 -96.5t-40 -96t-96 -39.5q-37 0 -68.5 18t-49.5 49.5t-18 68.5q0 56 40 96t96 40zM530 700h58l-406 -700h-59zM194 657q-24 0 -43.5 -10.5t-30 -30t-10.5 -43.5q0 -37 23.5 -61t60.5 -24t61 24t24 61t-24 60.5t-61 23.5zM520.5 264
q56.5 0 96.5 -40t40 -96.5t-40 -96.5t-96.5 -40t-96.5 40t-40 96.5t40 96.5t96.5 40zM521 212q-37 0 -61 -24t-24 -61t24 -61t61 -24t60.5 24t23.5 61t-23.5 61t-60.5 24z" />
    <glyph glyph-name="ampersand" unicode="&#x26;" horiz-adv-x="707" 
d="M667 0h-83l-76 90q-24 -29 -56.5 -50.5t-74 -34.5t-88.5 -14q-106 2 -171.5 62.5t-65.5 138.5q0 43 13.5 78t39.5 61.5t54 45.5t67 39q-53 63 -69.5 102t-14.5 76q2 34 24 60.5t59.5 40.5t85.5 14q70 0 117.5 -37t47.5 -98q0 -19 -5 -36t-19.5 -39t-46.5 -46.5t-79 -48.5
l176 -208q11 28 14 57h66q-6 -60 -34 -111zM205 583q-1 -26 15.5 -57t60.5 -81q36 19 62 35.5t40 29t21.5 25t9 20.5t1.5 19q0 23 -13 40.5t-36.5 27t-53.5 9.5q-48 0 -77 -19.5t-30 -48.5zM469 136l-199 236q-32 -17 -50 -27.5t-41 -28.5t-35 -34t-20.5 -39t-8.5 -50
q0 -58 48.5 -99.5t125.5 -43.5q62 2 108 25t72 61z" />
    <glyph glyph-name="quotesingle" unicode="'" horiz-adv-x="184" 
d="M93 708q17 0 29 -12t12 -29q0 -6 -1 -12.5t-3.5 -16t-8.5 -18t-14.5 -16.5t-22.5 -12.5t-31 -4.5q24 18 33 39q-10 1 -18 7t-12.5 14.5t-4.5 19.5q0 17 12.5 29t29.5 12z" />
    <glyph glyph-name="parenleft" unicode="(" horiz-adv-x="363" 
d="M313 -106l-25 -34q-42 16 -83.5 54.5t-76 94t-56.5 132t-22 158.5t22 159t56.5 133t76.5 94.5t83 51.5l24 -33q-77 -37 -138.5 -150t-61.5 -255t61.5 -253t139.5 -152z" />
    <glyph glyph-name="parenright" unicode=")" horiz-adv-x="363" 
d="M51 704l25 33q41 -13 82.5 -51.5t76.5 -94.5t56.5 -133t21.5 -159t-21.5 -158.5t-56.5 -132t-76.5 -94t-82.5 -54.5l-26 34q78 41 139.5 152t61.5 253t-61.5 255t-138.5 150z" />
    <glyph glyph-name="asterisk" unicode="*" horiz-adv-x="468" 
d="M418 572l-133 -57l90 -116l-48 -40l-91 117l-90 -117l-49 40l89 115l-136 58l29 55l123 -51v140h63v-140l125 52z" />
    <glyph glyph-name="plus" unicode="+" horiz-adv-x="539" 
d="M239 528h61v-189h189v-61h-189v-189h-61v189h-189v61h189v189z" />
    <glyph glyph-name="comma" unicode="," horiz-adv-x="184" 
d="M93 72q17 0 29 -12t12 -29q0 -9 -2.5 -20t-10 -26t-25.5 -24.5t-43 -9.5q23 18 33 39q-15 2 -25 13.5t-10 27.5q0 17 12.5 29t29.5 12z" />
    <glyph glyph-name="hyphen" unicode="-" horiz-adv-x="386" 
d="M50 312h286v-61h-286v61z" />
    <glyph glyph-name="period" unicode="." horiz-adv-x="183" 
d="M91.5 -10q-17.5 0 -29.5 12t-12 29q0 18 12.5 30t29.5 12t29 -12t12 -30q0 -17 -12 -29t-29.5 -12z" />
    <glyph glyph-name="slash" unicode="/" horiz-adv-x="480" 
d="M50 0l315 700h65l-315 -700h-65z" />
    <glyph glyph-name="zero" unicode="0" horiz-adv-x="675" 
d="M336 669q112 0 185.5 -96t73.5 -246q0 -141 -74 -237t-185 -96q-110 0 -183 95.5t-73 237.5q0 150 73 246t183 96zM337 606q-87 0 -139.5 -77t-52.5 -202q0 -118 52.5 -194t138.5 -76t140.5 76t54.5 194q0 125 -53.5 202t-140.5 77z" />
    <glyph glyph-name="one" unicode="1" horiz-adv-x="252" 
d="M94 0v660h64v-660h-64z" />
    <glyph glyph-name="two" unicode="2" horiz-adv-x="557" 
d="M117 550l-43 43q90 76 206 77q89 1 147 -50t57 -132q0 -25 -8 -47t-21 -37.5t-34.5 -31t-42 -26t-50.5 -24.5t-52.5 -25.5t-47.5 -28.5t-42 -36.5t-32 -44t-23 -56.5t-8 -70h362v-61h-429v53q1 56 15.5 102.5t35.5 78t54.5 59t64 44.5t71.5 36q27 11 40 17t32.5 17.5
t28.5 21.5t16.5 25.5t7.5 33.5q1 54 -37 88t-102 34q-95 1 -166 -60z" />
    <glyph glyph-name="three" unicode="3" horiz-adv-x="548" 
d="M103 550l-46 45q95 76 218 76q86 0 142.5 -46.5t56.5 -126.5q0 -60 -33.5 -100.5t-89.5 -54.5q59 -14 95.5 -59.5t36.5 -112.5q0 -84 -59 -132t-151 -48q-121 0 -217 76l46 46q70 -58 165 -58q67 -1 109 33t42 94q0 37 -19 65.5t-56.5 45.5t-89.5 18h-74v58l65 1
q80 1 123 32t43 89q0 54 -40.5 85.5t-101.5 31.5q-96 0 -165 -58z" />
    <glyph glyph-name="four" unicode="4" horiz-adv-x="542" 
d="M485 239v-61h-50v-178h-62v179h-327v65l323 416h66v-421h50zM373 239v334l-259 -334h259z" />
    <glyph glyph-name="five" unicode="5" horiz-adv-x="549" 
d="M91 346h170q79 0 117 -42.5t38 -111.5q0 -61 -41.5 -100t-105.5 -39q-85 0 -165 57l-44 -45q42 -34 97.5 -53.5t112.5 -19.5q89 -1 149 56.5t60 140.5q0 33 -7 63.5t-23 59t-39.5 49.5t-59 33.5t-79.5 12.5h-118v193h294v60h-356v-314z" />
    <glyph glyph-name="six" unicode="6" horiz-adv-x="556" 
d="M438 669v-61q-116 0 -200 -59q-98 -71 -115 -197q23 42 63.5 67t95.5 25q95 0 154.5 -65t59.5 -161q0 -58 -23.5 -108.5t-74.5 -84t-121 -33.5q-92 0 -150 64t-72 162q-17 119 23.5 217.5t123.5 159.5q102 74 236 74zM276 384q-50 0 -86.5 -23.5t-54 -60t-17.5 -81.5
q8 -72 50.5 -119t107.5 -47q74 0 115.5 48.5t41.5 116.5q0 44 -17 80.5t-53.5 61t-86.5 24.5z" />
    <glyph glyph-name="seven" unicode="7" horiz-adv-x="495" 
d="M50 660h403l-296 -660h-68l268 599h-307v61z" />
    <glyph glyph-name="eight" unicode="8" horiz-adv-x="565" 
d="M283 671q19 0 39.5 -3t44 -10t44 -20.5t37.5 -31.5t26.5 -44.5t9.5 -59.5q0 -119 -110 -158q58 -18 92 -63.5t34 -104.5q0 -61 -31.5 -104t-79.5 -62t-107 -19q-58 0 -106 19t-79.5 62t-31.5 104q0 59 35 105t93 63q-111 40 -111 158q0 38 13.5 68t35 48.5t49 31t53 17
t50.5 4.5zM283 612q-23 0 -45 -6t-43.5 -18t-34.5 -35.5t-13 -55.5q0 -52 36.5 -83t99.5 -32q63 1 99.5 32t36.5 83.5t-36 82.5t-100 32zM284 305q-73 -1 -111.5 -36t-38.5 -90q0 -36 14.5 -62.5t38 -40t47 -19.5t48.5 -6q15 0 29 2t29 6t28.5 10.5t25 17t20 23.5t13.5 30.5
t5 38.5q0 55 -39 90t-109 36z" />
    <glyph glyph-name="nine" unicode="9" horiz-adv-x="582" 
d="M130 -8v61q106 0 187 53q107 70 127 203q-22 -42 -62.5 -67.5t-96.5 -25.5q-94 0 -154 65.5t-60 161.5q0 43 14 83t40.5 72t69.5 51.5t96 19.5q91 0 149 -64t72 -162q17 -119 -23.5 -217.5t-123.5 -159.5q-101 -74 -235 -74zM291 608q-74 0 -115.5 -49t-41.5 -116
q0 -68 41.5 -117t115.5 -49q50 0 86.5 23.5t54.5 60t18 81.5q-9 72 -51.5 119t-107.5 47z" />
    <glyph glyph-name="colon" unicode=":" horiz-adv-x="183" 
d="M92 345q17 0 29 -12.5t12 -29.5t-12 -29.5t-29 -12.5q-12 0 -21.5 5.5t-15 15.5t-5.5 21q0 17 12.5 29.5t29.5 12.5zM92 74q17 0 29 -12.5t12 -29.5t-12 -29t-29 -12q-12 0 -21.5 5.5t-15 15t-5.5 20.5q0 17 12.5 29.5t29.5 12.5z" />
    <glyph glyph-name="semicolon" unicode=";" horiz-adv-x="184" 
d="M92 343q17 0 29.5 -12t12.5 -29q0 -18 -12.5 -30t-29.5 -12q-8 0 -16 3.5t-13.5 9t-9 13t-3.5 16.5q0 17 12.5 29t29.5 12zM93 73q17 0 29 -12t12 -30q0 -9 -2.5 -20t-10 -25.5t-25.5 -24t-43 -9.5q23 17 33 38q-10 2 -18 7.5t-12.5 14.5t-4.5 19q0 18 12.5 30t29.5 12z
" />
    <glyph glyph-name="less" unicode="&#x3c;" horiz-adv-x="450" 
d="M62 356l326 197v-72l-242 -146l242 -145v-72l-326 196v42z" />
    <glyph glyph-name="equal" unicode="=" horiz-adv-x="539" 
d="M50 424h439v-61h-439v61zM50 262h439v-61h-439v61z" />
    <glyph glyph-name="greater" unicode="&#x3e;" horiz-adv-x="425" 
d="M50 481v72l325 -197v-42l-325 -196v72l242 145z" />
    <glyph glyph-name="question" unicode="?" horiz-adv-x="510" 
d="M93 588l-43 44q89 74 202 77q86 2 143 -45q64 -49 65 -134q1 -60 -31.5 -94.5t-95.5 -62.5q-21 -9 -33 -15.5t-26.5 -18t-22 -24.5t-12.5 -34t-5 -48h-65q0 29 4 53t13.5 42t20.5 31.5t28 25t32 19.5t37 18q47 20 70.5 43t23.5 64q0 57 -42 89q-39 31 -100 31
q-93 -1 -163 -61zM202 73q17 0 29.5 -12t12.5 -30q0 -11 -5.5 -20.5t-15.5 -15t-21 -5.5q-17 0 -29.5 12t-12.5 29.5t12.5 29.5t29.5 12z" />
    <glyph glyph-name="at" unicode="@" horiz-adv-x="876" 
d="M483 -62l56 -57q-39 -7 -112 -7q-86 0 -150 21t-103.5 55.5t-63.5 86.5t-32.5 106.5t-8.5 122t8.5 121.5t33 105t65 85t107 54.5t154.5 20.5q69 0 123.5 -10.5t92.5 -28.5t66.5 -47t45 -60t26.5 -72.5t13 -80.5t3 -88v-154q0 -35 -16 -62t-46 -41.5t-68 -14.5
q-56 0 -94.5 29t-43.5 76q-51 -35 -115 -35q-86 0 -139 57.5t-53 151.5q0 98 52.5 153t139.5 55q67 0 115 -33v27h54v-356q1 -34 22.5 -52.5t60.5 -18.5q24 0 40 10t23.5 26.5t7.5 40.5v140q0 33 -2 59t-6 54.5t-11.5 51t-19.5 45t-28.5 39.5t-40 32t-52.5 24.5t-66.5 15
t-83.5 5.5q-75 0 -131 -17.5t-89.5 -45.5t-53.5 -71.5t-27 -88t-7 -102t7 -103t26.5 -89t52 -72.5t86.5 -47t127 -18q38 0 55 2zM533 155v238q-35 27 -103 27q-65 0 -101 -38.5t-36 -110.5q0 -70 36.5 -109.5t100.5 -39.5q27 0 57 9.5t46 23.5z" />
    <glyph glyph-name="A" unicode="A" 
d="M341 700h72l297 -700h-68l-94 218h-342l-94 -218h-68zM522 282l-145 342l-145 -342h290z" />
    <glyph glyph-name="B" unicode="B" horiz-adv-x="645" 
d="M106 700h251q86 0 144 -50.5t58 -131.5q0 -52 -25.5 -91.5t-70.5 -61.5q58 -19 93.5 -65.5t35.5 -108.5q0 -83 -59.5 -137t-145.5 -54h-281v700zM171 390h173q65 0 106.5 33t41.5 91t-42 91t-106 33h-173v-248zM172 62h204q64 0 106.5 37t42.5 96q0 39 -20 69.5t-54 46.5
t-75 16h-204v-265z" />
    <glyph glyph-name="C" unicode="C" horiz-adv-x="730" 
d="M631 113l46 -43q-100 -79 -225 -79q-97 0 -180 48t-131.5 130.5t-48.5 180.5t48.5 180.5t131.5 130.5t180 48q127 0 225 -79l-45 -44q-79 60 -180 60q-80 0 -148 -39.5t-107.5 -107.5t-39.5 -149q0 -123 86 -210t209 -87q100 0 179 60z" />
    <glyph glyph-name="D" unicode="D" horiz-adv-x="805" 
d="M106 700h246q98 0 181 -47t131 -127.5t48 -175.5t-48 -175.5t-131 -127.5t-181 -47h-246v700zM170 62h182q123 0 209.5 84.5t86.5 203.5q0 78 -39.5 144t-107.5 105t-149 39h-182v-576z" />
    <glyph glyph-name="E" unicode="E" horiz-adv-x="578" 
d="M106 700h416v-60h-352v-246h348v-60h-348v-274h355v-60h-419v700z" />
    <glyph glyph-name="F" unicode="F" horiz-adv-x="572" 
d="M106 700h413v-60h-349v-264h342v-60h-342v-316h-64v700z" />
    <glyph glyph-name="G" unicode="G" horiz-adv-x="763" 
d="M663 334v-265q-98 -78 -223 -78q-97 0 -180 48t-131.5 130.5t-48.5 180.5t48.5 180.5t131.5 130.5t180 48q127 0 224 -79l-44 -44q-79 60 -180 60q-123 0 -209 -86.5t-86 -209.5t86 -209.5t209 -86.5q87 0 159 48v232h64z" />
    <glyph glyph-name="H" unicode="H" horiz-adv-x="726" 
d="M556 397v303h64v-700h-64v335h-386v-335h-64v700h64v-303h386z" />
    <glyph glyph-name="I" unicode="I" horiz-adv-x="276" 
d="M106 0v700h64v-700h-64z" />
    <glyph glyph-name="J" unicode="J" horiz-adv-x="473" 
d="M302 700h65v-411q0 -142 -83.5 -220t-215.5 -78h-24v64h25q104 -1 168.5 59.5t64.5 174.5v411z" />
    <glyph glyph-name="K" unicode="K" horiz-adv-x="639" 
d="M478 700h76l-235 -269l276 -431h-76l-243 381l-106 -120v-261h-64v700h64v-353z" />
    <glyph glyph-name="L" unicode="L" horiz-adv-x="553" 
d="M106 700h65v-639h338v-61h-403v700z" />
    <glyph glyph-name="M" unicode="M" horiz-adv-x="904" 
d="M726 700h72v-700h-64v611l-282 -353l-282 354v-612h-64v700h72l274 -348z" />
    <glyph glyph-name="N" unicode="N" horiz-adv-x="746" 
d="M106 700h72l398 -597v597h64v-700h-72l-398 598v-598h-64v700z" />
    <glyph glyph-name="O" unicode="O" horiz-adv-x="880" 
d="M440.5 709q97.5 0 180.5 -48t131 -130.5t48 -180.5t-48 -180.5t-131 -130.5t-180.5 -48t-180.5 48t-131.5 130.5t-48.5 180.5t48.5 180.5t131.5 130.5t180.5 48zM440 646q-123 0 -209 -86.5t-86 -209.5t86 -209.5t209 -86.5t209.5 86.5t86.5 209.5t-86.5 209.5
t-209.5 86.5z" />
    <glyph glyph-name="P" unicode="P" horiz-adv-x="634" 
d="M107 700h231q98 1 157.5 -55.5t59.5 -150.5q0 -93 -59 -150t-157 -57h-169v-287h-63v700zM171 350h164q70 0 113 39.5t43 104.5q0 43 -20.5 76t-56 50.5t-78.5 17.5h-165v-288z" />
    <glyph glyph-name="Q" unicode="Q" horiz-adv-x="881" 
d="M800 37l-45 -45l-83 83q-101 -84 -232 -84q-97 0 -180 48t-131.5 130.5t-48.5 180.5t48.5 180.5t131.5 130.5t180.5 48t180.5 -48t131 -130.5t48 -180.5q0 -130 -83 -230zM145 350q0 -123 86 -209.5t209 -86.5q81 0 149 39.5t107.5 107.5t39.5 149q0 123 -86.5 209.5
t-209.5 86.5q-81 0 -149 -39.5t-107 -107.5t-39 -149z" />
    <glyph glyph-name="R" unicode="R" horiz-adv-x="661" 
d="M106 700h236q64 0 112 -24t74 -68.5t26 -102.5q0 -53 -21.5 -94t-61 -66.5t-92.5 -32.5l202 -312h-75l-199 309h-137v-309h-64v700zM170 372h171q44 0 77.5 16t52.5 46.5t19 70t-20 70t-53.5 47t-74.5 16.5h-172v-266z" />
    <glyph glyph-name="S" unicode="S" horiz-adv-x="523" 
d="M288 324l-45 16q-57 15 -97 39t-64 61.5t-24 84.5q0 88 60.5 136.5t143.5 48.5q102 -1 163 -59l-40 -44q-49 44 -123 41q-36 -1 -66.5 -14t-50.5 -41t-20 -66q0 -49 34.5 -81.5t105.5 -52.5l49 -15q159 -52 159 -196q0 -59 -30.5 -102.5t-79 -65t-105.5 -23.5
q-58 -1 -112.5 20t-91.5 62l40 45q31 -34 74 -50.5t89 -14.5q41 2 75.5 17t56 44.5t21.5 67.5q0 37 -13.5 64t-40 45t-68.5 33z" />
    <glyph glyph-name="T" unicode="T" horiz-adv-x="578" 
d="M44 700h490v-60h-213v-640h-64v639h-213v61z" />
    <glyph glyph-name="U" unicode="U" 
d="M591 265v435h65v-442q0 -110 -79 -188.5t-196 -78.5t-196 78.5t-79 188.5v442h66v-435q0 -44 16.5 -83t44.5 -67t66.5 -44.5t81.5 -16.5q87 0 148.5 61.5t61.5 149.5z" />
    <glyph glyph-name="V" unicode="V" horiz-adv-x="747" 
d="M637 700h67l-294 -700h-72l-294 700h66l264 -617z" />
    <glyph glyph-name="W" unicode="W" horiz-adv-x="1067" 
d="M956 700h67l-233 -700h-72l-184 599l-186 -599h-70l-234 700h67l203 -598l183 598h74l183 -598z" />
    <glyph glyph-name="X" unicode="X" horiz-adv-x="649" 
d="M605 0h-72l-208 318l-210 -318h-71l240 366l-220 334h72l190 -289l187 289h72l-219 -336z" />
    <glyph glyph-name="Y" unicode="Y" horiz-adv-x="670" 
d="M556 700h70l-259 -407v-293h-64v293l-259 407h71l220 -346z" />
    <glyph glyph-name="Z" unicode="Z" horiz-adv-x="576" 
d="M66 700h454v-61l-394 -579h397v-60h-470v61l394 579h-381v60z" />
    <glyph glyph-name="bracketleft" unicode="[" horiz-adv-x="227" 
d="M177 689h-65v-768h65v-61h-127v890h127v-61z" />
    <glyph glyph-name="backslash" unicode="\" horiz-adv-x="480" 
d="M50 700h65l315 -700h-65z" />
    <glyph glyph-name="bracketright" unicode="]" horiz-adv-x="227" 
d="M50 750h127v-890h-127v61h65v768h-65v61z" />
    <glyph glyph-name="asciicircum" unicode="^" horiz-adv-x="533" 
d="M246 664h41l196 -325h-71l-145 241l-146 -241h-71z" />
    <glyph glyph-name="underscore" unicode="_" horiz-adv-x="539" 
d="M50 -64h439v-61h-439v61z" />
    <glyph glyph-name="grave" unicode="`" horiz-adv-x="252" 
d="M143 575l-93 125h84l68 -125h-59z" />
    <glyph glyph-name="a" unicode="a" horiz-adv-x="553" 
d="M110 408l-25 49q68 52 190 52q102 0 157.5 -57.5t55.5 -158.5v-293h-56v53q-26 -27 -76 -44t-99 -17q-60 0 -103.5 20t-67.5 60t-24 97q0 78 54 124.5t153 46.5q86 -1 156 -39q-2 72 -42 110.5t-114 38.5q-103 0 -159 -42zM425 107v138q-61 36 -156 36q-72 0 -108 -30.5
t-36 -83.5q0 -55 34.5 -84t103.5 -29q38 0 85 14.5t77 38.5z" />
    <glyph glyph-name="b" unicode="b" horiz-adv-x="592" 
d="M86 700h63v-235q62 42 141 42q110 1 170.5 -64.5t59.5 -196.5q-1 -254 -230 -254q-41 0 -80 13.5t-67 36.5v-42h-57v700zM149 409v-310q15 -16 38 -27t47.5 -16.5t48.5 -5.5q93 0 133.5 49t40.5 147q0 202 -173 202q-84 0 -135 -39z" />
    <glyph glyph-name="c" unicode="c" horiz-adv-x="559" 
d="M447 92l44 -44q-70 -55 -160 -55q-107 0 -183 75t-76 183q0 107 76 182t183 75q91 0 161 -56l-44 -44q-51 39 -117 39q-82 0 -139 -57t-57 -139q0 -33 9.5 -63t28 -54t42.5 -42t54 -28t62 -10q66 0 116 38z" />
    <glyph glyph-name="d" unicode="d" horiz-adv-x="592" 
d="M444 700h62v-700h-57v42q-27 -23 -66 -36.5t-80 -13.5q-229 0 -231 254q0 131 60 196.5t171 64.5q79 0 141 -42v235zM444 99v310q-51 39 -135 39q-173 0 -173 -202q0 -65 16.5 -107.5t55.5 -65.5t101 -23q38 0 75 13t60 36z" />
    <glyph glyph-name="e" unicode="e" horiz-adv-x="630" 
d="M480 98l44 -44q-66 -62 -184 -62q-53 0 -101 18.5t-85 51.5t-59.5 82t-22.5 106q0 107 75.5 182.5t182.5 75.5q117 0 187 -82q53 -62 45 -124q-7 -58 -66 -69q-11 -2 -24 -2h-329q0 -77 57 -128t137 -51q93 0 143 46zM144 289h304q35 0 44 26t-11 56q-18 33 -57 56
t-94 23q-50 0 -92 -22.5t-66.5 -59t-27.5 -79.5z" />
    <glyph glyph-name="f" unicode="f" horiz-adv-x="374" 
d="M270 708h54v-55h-54q-20 0 -37 -7t-28 -21.5t-11 -34.5v-90h120v-59h-120v-441h-62v441h-82v59h82v90q0 54 38.5 86t99.5 32z" />
    <glyph glyph-name="g" unicode="g" horiz-adv-x="593" 
d="M108 -125l8 50q80 -40 178 -39q83 1 115.5 35t35.5 127q-52 -50 -142 -51q-111 0 -171 63t-60 194q2 254 231 254q41 0 80 -13.5t66 -36.5v42h58v-443q-1 -122 -49.5 -175.5t-163.5 -51.5q-108 1 -186 45zM444 107v294q-23 23 -60.5 36t-74.5 13q-92 0 -132.5 -49
t-40.5 -147q0 -96 41 -146.5t132 -50.5q78 0 135 50z" />
    <glyph glyph-name="h" unicode="h" horiz-adv-x="613" 
d="M532 0h-63v241q0 108 -38.5 158t-130.5 50q-75 0 -146 -48v-401h-63v700h62v-246q72 54 160 53q112 0 165 -66t54 -200v-241z" />
    <glyph glyph-name="i" unicode="i" horiz-adv-x="239" 
d="M122.5 577q-16.5 0 -28 11.5t-11.5 28t11.5 28t28 11.5t28 -11.5t11.5 -28t-11.5 -28t-28 -11.5zM92 0v500h61v-500h-61z" />
    <glyph glyph-name="j" unicode="j" horiz-adv-x="349" 
d="M224 656q16 0 27.5 -11.5t11.5 -28t-11.5 -28t-27.5 -11.5q-17 0 -28.5 11.5t-11.5 28t11.5 28t28.5 11.5zM193 500h61v-526q0 -68 -36 -108.5t-105 -39.5h-24v56h24q40 0 60 25t20 67v526z" />
    <glyph glyph-name="k" unicode="k" horiz-adv-x="558" 
d="M438 0l-202 265l-82 -82v-183h-63v700h63v-427l228 227h84l-186 -189l232 -311h-74z" />
    <glyph glyph-name="l" unicode="l" horiz-adv-x="233" 
d="M91 0v700h61v-700h-61z" />
    <glyph glyph-name="m" unicode="m" horiz-adv-x="985" 
d="M148 500l-1 -46q69 52 154 53q130 3 184 -83q40 35 94 59t104 24q113 1 167 -65t54 -201v-241h-63v241q0 108 -38 158t-129 50q-27 0 -59.5 -10.5t-60 -25t-49.5 -30.5q22 -54 22 -142v-241h-63v241q0 108 -38.5 158t-130.5 50q-75 0 -146 -48v-401h-63v500h62z" />
    <glyph glyph-name="n" unicode="n" horiz-adv-x="608" 
d="M527 0h-63v241q0 108 -38.5 158.5t-130.5 49.5q-75 0 -146 -48v-401h-63v500h62v-46q73 55 164 53q111 -1 162.5 -67t52.5 -199v-241z" />
    <glyph glyph-name="o" unicode="o" horiz-adv-x="662" 
d="M331 508q52 0 100 -20.5t83 -55t55.5 -82.5t20.5 -100q0 -107 -76 -182.5t-183 -75.5t-183 75.5t-76 182.5t76 182.5t183 75.5zM331 446q-82 0 -139 -57t-57 -139t57 -139t139 -57t139 57t57 139t-57 139t-139 57z" />
    <glyph glyph-name="p" unicode="p" horiz-adv-x="592" 
d="M143 500v-42q28 23 67 36.5t80 13.5q229 0 230 -254q1 -131 -59.5 -196.5t-170.5 -65.5q-77 1 -141 45v-215h-63v678h57zM149 402v-308q16 -13 38 -22.5t47 -14.5t50 -5q173 0 173 202q0 98 -40.5 147t-133.5 49q-37 0 -74 -13t-60 -35z" />
    <glyph glyph-name="q" unicode="q" horiz-adv-x="592" 
d="M444 -178v215q-65 -44 -141 -45q-111 0 -171 65.5t-60 196.5q2 254 231 254q41 0 80 -13.5t66 -36.5v42h57v-678h-62zM444 94v307q-16 16 -38.5 27t-47.5 16.5t-49 5.5q-92 0 -132.5 -49t-40.5 -147q0 -202 173 -202q37 0 74 11.5t61 30.5z" />
    <glyph glyph-name="r" unicode="r" horiz-adv-x="488" 
d="M148 500v-83q34 41 81 65.5t97 24.5q63 1 117 -39l-45 -45q-41 28 -88 27q-87 -1 -161 -89v-361h-63v500h62z" />
    <glyph glyph-name="s" unicode="s" horiz-adv-x="412" 
d="M50 60l40 40q57 -47 113 -48q26 0 48 10.5t35 28t13 39.5q2 26 -7.5 45t-32.5 34t-61 27q-46 12 -75.5 30t-45.5 45.5t-16 65.5q0 58 42.5 94.5t101.5 37.5q68 0 131 -45l-42 -41q-40 24 -83 24q-34 0 -59.5 -17.5t-26.5 -47.5q-2 -32 17 -53.5t68 -35.5q82 -23 117 -61
t35 -101q0 -62 -45 -101t-114 -39q-80 0 -153 69z" />
    <glyph glyph-name="t" unicode="t" horiz-adv-x="364" 
d="M122 627h63v-127h129v-59h-129v-331q0 -29 22 -45.5t53 -16.5h54v-56h-54q-60 0 -99 32t-39 86v331h-72v59h72v127z" />
    <glyph glyph-name="u" unicode="u" horiz-adv-x="617" 
d="M467 500h64v-500h-62v61q-77 -70 -179 -69q-108 2 -158 68t-50 199v241h63v-241q0 -108 36.5 -158.5t125.5 -49.5q86 0 160 64v385z" />
    <glyph glyph-name="v" unicode="v" horiz-adv-x="559" 
d="M452 500h60l-201 -500h-63l-202 500h61l173 -425z" />
    <glyph glyph-name="w" unicode="w" horiz-adv-x="830" 
d="M784 500l-168 -500h-65l-136 409l-136 -409h-64l-169 500h61l140 -408l136 408h65l136 -408l139 408h61z" />
    <glyph glyph-name="x" unicode="x" horiz-adv-x="503" 
d="M457 500l-165 -254l165 -246h-74l-134 201l-128 -201h-75l167 252l-167 248h75l135 -203l127 203h74z" />
    <glyph glyph-name="y" unicode="y" horiz-adv-x="579" 
d="M445 500h63v-455q-3 -114 -56 -165.5t-169 -49.5q-108 1 -186 45l8 50q77 -40 178 -39q85 0 121.5 31.5t42.5 112.5v23q-31 -23 -72.5 -38t-84.5 -15q-113 -1 -167.5 65t-54.5 202v233h63v-233q0 -72 15.5 -116.5t53 -68t99.5 -23.5q74 0 146 48v393z" />
    <glyph glyph-name="z" unicode="z" horiz-adv-x="446" 
d="M128 59h268v-59h-346v55l264 385h-251v60h329v-56z" />
    <glyph glyph-name="braceleft" unicode="{" horiz-adv-x="361" 
d="M234 750h77v-59h-43q-12 0 -21.5 -6t-15.5 -16.5t-6 -23.5v-226q0 -39 -21.5 -69.5t-58.5 -44.5q37 -14 58.5 -44.5t21.5 -69.5v-226q0 -20 12.5 -33t30.5 -13h43v-59h-77q-29 0 -50 21.5t-21 54.5v236q0 42 -31 71t-77 31h-5v62h5q46 1 77 30.5t31 71.5v236
q0 33 21 54.5t50 21.5z" />
    <glyph glyph-name="bar" unicode="|" horiz-adv-x="163" 
d="M50 700h63v-760h-63v760z" />
    <glyph glyph-name="braceright" unicode="}" horiz-adv-x="361" 
d="M50 750h77q30 0 50.5 -21.5t20.5 -54.5v-236q0 -42 31 -71.5t77 -30.5h5v-62h-5q-46 -2 -77 -31t-31 -71v-236q0 -22 -9.5 -39.5t-26 -27t-35.5 -9.5h-77v59h43q19 0 31 13t12 33v226q0 26 10 48.5t28 39.5t42 26q-18 7 -33 18.5t-25 26t-16 32.5t-6 37v226
q0 13 -5.5 23.5t-15.5 16.5t-22 6h-43v59z" />
    <glyph glyph-name="asciitilde" unicode="~" horiz-adv-x="466" 
d="M417 341v-69l-35 -35q-46 -46 -125 1l-61 35q-61 36 -97 1l-49 -49v69l35 36q46 45 125 -1l61 -36q61 -36 97 -1z" />
    <glyph glyph-name="exclamdown" unicode="&#xa1;" horiz-adv-x="183" 
d="M91.5 548q17.5 0 29.5 -12t12 -29q0 -18 -12 -30t-29 -12t-29.5 12t-12.5 30q0 17 12 29t29.5 12zM123 378v-541h-63v541h63z" />
    <glyph glyph-name="cent" unicode="&#xa2;" horiz-adv-x="554" 
d="M291 601h40v-93q90 -2 157 -56l-44 -44q-48 37 -113 38v-391q63 1 112 38l44 -45q-36 -29 -76.5 -41t-79.5 -14v-91h-40v93q-95 13 -158.5 85.5t-63.5 170.5q0 97 63.5 169.5t158.5 85.5v95zM291 59v384q-69 -12 -114.5 -66t-45.5 -126.5t45.5 -126.5t114.5 -65z" />
    <glyph glyph-name="sterling" unicode="&#xa3;" horiz-adv-x="625" 
d="M140 382l-17 103q-9 49 0 88.5t29.5 64t51 40.5t62 22.5t65.5 6.5q121 0 214 -75l-41 -40q-76 56 -168 53q-33 -1 -59 -9t-49.5 -25.5t-33 -52.5t-2.5 -84l15 -92h196v-60h-186l11 -67q27 -157 -46 -199h393v-62h-523v62q76 4 101 51.5t9 142.5l-12 72h-98v60h88z" />
    <glyph glyph-name="currency" unicode="&#xa4;" horiz-adv-x="600" 
 />
    <glyph glyph-name="yen" unicode="&#xa5;" horiz-adv-x="648" 
d="M542 700h72l-186 -269h125v-61h-167l-29 -49v-20h196v-61h-198v-240h-63v240h-196v61h195v20l-30 49h-165v61h123l-185 269h71l218 -320z" />
    <glyph glyph-name="brokenbar" unicode="&#xa6;" horiz-adv-x="162" 
d="M50 700h62v-329h-62v329zM50 268h62v-328h-62v328z" />
    <glyph glyph-name="section" unicode="&#xa7;" horiz-adv-x="455" 
d="M246 161l-101 37q-24 9 -42 22t-29 28t-16.5 31.5t-5.5 35.5q0 56 43 90q-42 35 -42 94q0 54 43.5 89.5t121.5 35.5q36 0 71 -6.5t59.5 -15.5t42.5 -19l-25 -51q-22 14 -63 22t-78 8q-50 0 -76.5 -17.5t-26.5 -46.5q0 -45 68 -70l93 -34q60 -22 91 -60t31 -85
q0 -52 -33 -89q33 -39 33 -89q0 -61 -47 -100.5t-126 -39.5q-56 0 -104.5 13.5t-76.5 31.5l23 45q54 -27 142 -27q55 0 83.5 21t28.5 56q0 30 -17.5 51.5t-64.5 38.5zM252 341l-91 33q-42 -15 -42 -60q0 -42 54 -62l88 -32q42 -18 49 -22q22 28 20 58q-1 57 -78 85z" />
    <glyph glyph-name="dieresis" unicode="&#xa8;" horiz-adv-x="393" 
d="M92 623q-12 0 -21.5 5.5t-15 15t-5.5 20.5q0 17 12.5 29.5t29.5 12.5t29 -12.5t12 -29.5t-12 -29t-29 -12zM301 623q-17 0 -29.5 12t-12.5 29t12.5 29.5t29.5 12.5t29.5 -12.5t12.5 -29.5t-12.5 -29t-29.5 -12z" />
    <glyph glyph-name="copyright" unicode="&#xa9;" horiz-adv-x="818" 
d="M409 709q97 0 180 -48t131 -131t48 -180.5t-48 -180t-131 -130.5t-180 -48q-73 0 -139.5 28.5t-114.5 76.5t-76.5 114.5t-28.5 139.5q0 97 48 180t131 131t180 48zM409 651q-82 0 -151 -40.5t-109.5 -109.5t-40.5 -151q0 -125 88 -213t213 -88t213 88t88 213t-88 213
t-213 88zM489 252l43 -43q-52 -43 -119 -43q-76 0 -130 54.5t-54 130.5t54 130t130 54q68 0 120 -44l-43 -42q-34 25 -75 25q-34 0 -62.5 -16t-45 -44.5t-16.5 -62.5q0 -52 36 -88t88 -36q41 0 74 25z" />
    <glyph glyph-name="ordfeminine" unicode="&#xaa;" horiz-adv-x="373" 
d="M69 633l-21 42q44 37 127 37q67 0 104 -38t37 -103v-188h-50v26q-42 -31 -102 -31q-59 0 -94 30.5t-35 85.5q0 52 37 81.5t99 29.5q51 0 90 -20q-8 79 -90 79q-68 0 -102 -31zM262 458v80q-34 22 -90 22q-83 0 -83 -67q0 -68 79 -68q23 0 51 9.5t43 23.5z" />
    <glyph glyph-name="guillemotleft" unicode="&#xab;" horiz-adv-x="443" 
d="M50 308l167 120v-68l-120 -80l120 -80v-68l-167 119v57zM226 308l167 120v-68l-120 -80l120 -80v-68l-167 119v57z" />
    <glyph glyph-name="logicalnot" unicode="&#xac;" horiz-adv-x="539" 
d="M489 154h-61v124h-378v61h439v-185z" />
    <glyph glyph-name="softhyphen" unicode="&#xad;" horiz-adv-x="386" 
d="M50 312h286v-61h-286v61z" />
    <glyph glyph-name="registered" unicode="&#xae;" horiz-adv-x="818" 
d="M409 709q97 0 180 -48t131 -131t48 -180.5t-48 -180t-131 -130.5t-180 -48q-73 0 -139.5 28.5t-114.5 76.5t-76.5 114.5t-28.5 139.5q0 97 48 180t131 131t180 48zM409 651q-82 0 -151 -40.5t-109.5 -109.5t-40.5 -151q0 -125 88 -213t213 -88t213 88t88 213t-88 213
t-213 88zM292 534h124q50 0 81.5 -29t31.5 -74q0 -36 -21.5 -62.5t-57.5 -35.5l102 -156h-58l-91 151h-59v-151h-52v357zM345 376h71q27 0 44 14.5t17 40.5q0 25 -17 40t-44 15h-71v-110z" />
    <glyph glyph-name="macron" unicode="&#xaf;" horiz-adv-x="406" 
d="M50 700h306v-52h-306v52z" />
    <glyph glyph-name="degree" unicode="&#xb0;" horiz-adv-x="372" 
d="M186 708q56 0 96 -39.5t40 -95.5q0 -57 -40 -96t-96 -39q-37 0 -68.5 17.5t-49.5 49t-18 68.5q0 56 40 95.5t96 39.5zM186 647q-31 0 -52.5 -21.5t-21.5 -52.5q0 -20 10 -37t27 -27t37 -10q31 0 52.5 21.5t21.5 52.5t-21.5 52.5t-52.5 21.5z" />
    <glyph glyph-name="plusminus" unicode="&#xb1;" horiz-adv-x="539" 
d="M239 536h61v-139h189v-61h-189v-139h-61v139h-189v61h189v139zM50 61h439v-61h-439v61z" />
    <glyph glyph-name="twosuperior" unicode="&#xb2;" horiz-adv-x="308" 
d="M81 630l-33 33q47 42 109 44q49 1 80 -26q30 -27 28 -70q-1 -18 -7.5 -31t-20.5 -23.5t-25 -16t-33 -15.5q-38 -16 -57 -37.5t-19 -68.5h160v-53h-218v33q0 41 9 71t26 48t32 27t37 18q2 1 10.5 4t11.5 4t10 4t9.5 5t7 5.5t6 7t3.5 8.5t2 11q1 20 -14 33t-41 13
q-41 -1 -73 -28z" />
    <glyph glyph-name="threesuperior" unicode="&#xb3;" horiz-adv-x="302" 
d="M75 635l-32 33q49 38 109 38q46 0 75 -23.5t29 -64.5q0 -20 -8 -36.5t-22 -27.5t-33 -15q31 -5 49 -28.5t18 -59.5q0 -41 -29 -65t-79 -26q-60 0 -110 39l33 33q33 -23 69 -23q25 -1 42 12.5t17 37.5q0 25 -16 39t-46 16h-33v48h32q27 0 43 14t16 37q0 22 -15 34.5
t-39 12.5q-37 0 -70 -25z" />
    <glyph glyph-name="acute" unicode="&#xb4;" horiz-adv-x="252" 
d="M118 700h84l-93 -125h-59z" />
    <glyph glyph-name="paragraph" unicode="&#xb6;" horiz-adv-x="600" 
d="M285 700h265v-61h-38v-802h-62v802h-105v-802h-63v471q-117 0 -179.5 51t-62.5 141q0 107 60 153.5t185 46.5z" />
    <glyph glyph-name="periodcentered" unicode="&#xb7;" horiz-adv-x="183" 
d="M91.5 272q-17.5 0 -29.5 12t-12 29t12.5 29.5t29.5 12.5t29 -12.5t12 -29.5t-12 -29t-29.5 -12z" />
    <glyph glyph-name="cedilla" unicode="&#xb8;" horiz-adv-x="259" 
d="M87 2h41v-45h9q35 0 55 -21t20 -51.5t-22 -52.5t-57 -22h-86v42h83q18 0 27 10t9 22q0 15 -8.5 25t-27.5 10h-43v83z" />
    <glyph glyph-name="onesuperior" unicode="&#xb9;" horiz-adv-x="156" 
d="M50 362v338h56v-338h-56z" />
    <glyph glyph-name="ordmasculine" unicode="&#xba;" horiz-adv-x="410" 
d="M205 714q69 0 119 -50t50 -119t-50 -119t-119 -50t-119 50t-50 119t50 119t119 50zM205 660q-48 0 -81.5 -33.5t-33.5 -81.5q0 -32 15.5 -58.5t42 -41.5t57.5 -15q48 0 81.5 33.5t33.5 81.5t-33.5 81.5t-81.5 33.5z" />
    <glyph glyph-name="guillemotright" unicode="&#xbb;" horiz-adv-x="443" 
d="M50 360v68l167 -120v-57l-167 -119v68l120 80zM226 360v68l167 -120v-56l-167 -120v68l119 80z" />
    <glyph glyph-name="onequarter" unicode="&#xbc;" horiz-adv-x="650" 
d="M50 700h56v-338h-56v338zM416 700h64l-315 -700h-64zM512 338h63v-207h25v-50h-25v-81h-56v81h-167v53zM519 131v148l-114 -148h114z" />
    <glyph glyph-name="onehalf" unicode="&#xbd;" horiz-adv-x="670" 
d="M50 700h56v-338h-56v338zM410 700h64l-315 -700h-64zM436 264l-33 33q46 41 105 44q54 3 86 -28q27 -26 26 -67q-2 -34 -22 -51t-64 -36q-38 -15 -57 -36.5t-19 -69.5h160v-53h-218v34q0 33 7 59t16 42t24 29t27 19.5t29 13.5q3 1 11.5 4t11.5 4t9.5 4t9.5 5t7.5 5.5t6 7
t3.5 8.5t2 11q1 18 -11 30q-15 17 -46 16q-40 -2 -71 -28z" />
    <glyph glyph-name="threequarters" unicode="&#xbe;" horiz-adv-x="743" 
d="M83 635l-33 33q50 38 110 38q45 0 74.5 -23.5t29.5 -64.5q0 -20 -8 -36.5t-22 -27.5t-33 -15q30 -5 48.5 -28.5t18.5 -59.5q0 -41 -29.5 -65t-79.5 -26q-59 0 -109 39l33 33q32 -23 69 -23q25 -1 42 12.5t17 37.5q0 25 -16.5 39t-46.5 16h-32v48h31q28 0 43.5 14t15.5 37
q0 22 -15 34.5t-38 12.5q-37 0 -70 -25zM508 700h65l-315 -700h-65zM605 338h63v-207h25v-50h-25v-81h-57v81h-166v53zM611 131v148l-113 -148h113z" />
    <glyph glyph-name="questiondown" unicode="&#xbf;" horiz-adv-x="510" 
d="M308 556q18 0 30 -12t12 -29t-12.5 -29.5t-29.5 -12.5t-29.5 12.5t-12.5 29.5t12.5 29t29.5 12zM277 313h65q0 -43 -9.5 -74.5t-30.5 -52.5t-41.5 -33.5t-54.5 -28.5q-47 -20 -70.5 -43t-23.5 -64q0 -56 43 -89q38 -31 99 -31q93 1 163 61l43 -44q-89 -74 -202 -76
q-86 -3 -143 45q-64 48 -65 133q-1 60 31.5 94.5t95.5 62.5q21 9 33 15.5t26.5 18t22 24.5t13 34t5.5 48z" />
    <glyph glyph-name="Agrave" unicode="&#xc0;" 
d="M278 900h84l68 -125h-59zM341 700h72l297 -700h-67l-95 218h-342l-94 -218h-68zM522 282l-145 342l-145 -342h290z" />
    <glyph glyph-name="Aacute" unicode="&#xc1;" 
d="M392 900h84l-93 -125h-59zM341 700h72l297 -700h-67l-95 218h-342l-94 -218h-68zM522 282l-145 342l-145 -342h290z" />
    <glyph glyph-name="Acircumflex" unicode="&#xc2;" 
d="M346 900h64l123 -134h-71l-84 95l-84 -95h-72zM341 700h72l297 -700h-67l-95 218h-342l-94 -218h-68zM522 282l-145 342l-145 -342h290z" />
    <glyph glyph-name="Atilde" unicode="&#xc3;" 
d="M474 863l36 36v-62l-23 -22q-36 -36 -95 -2l-45 27q-44 26 -68 2l-42 -42v61l29 29q34 34 92 0l45 -26q45 -27 71 -1zM341 700h72l297 -700h-67l-95 218h-342l-94 -218h-68zM522 282l-145 342l-145 -342h290z" />
    <glyph glyph-name="Adieresis" unicode="&#xc4;" 
d="M273 823q-11 0 -20.5 5.5t-15 15t-5.5 20.5q0 17 12 29.5t29 12.5t29.5 -12.5t12.5 -29.5t-12.5 -29t-29.5 -12zM482 823q-17 0 -29 12t-12 29t12 29.5t29 12.5q18 0 30 -12.5t12 -29.5t-12 -29t-30 -12zM341 700h72l297 -700h-68l-94 218h-342l-94 -218h-68zM522 282
l-145 342l-145 -342h290z" />
    <glyph glyph-name="Aring" unicode="&#xc5;" 
d="M414 698l296 -698h-67l-95 218h-342l-94 -218h-68l296 698q-19 7 -33.5 21t-22.5 33.5t-8 40.5q0 42 29.5 71.5t71.5 29.5t72 -29.5t30 -71.5q0 -32 -18 -58t-47 -37zM377 844q-21 0 -35.5 -15t-14.5 -36q0 -14 6.5 -26t18 -19t25.5 -7q9 0 16.5 2.5t14 7.5t11.5 11.5
t7.5 14.5t2.5 16q0 21 -15 36t-37 15zM232 282h290l-145 342z" />
    <glyph glyph-name="AE" unicode="&#xc6;" horiz-adv-x="842" 
d="M341 700h444v-60h-352v-246h348v-60h-348v-274h356v-60h-420v218h-163l-95 -218h-67zM369 282v324l-137 -324h137z" />
    <glyph glyph-name="Ccedilla" unicode="&#xc7;" horiz-adv-x="730" 
d="M407 -81v75q-134 17 -224.5 118t-90.5 238q0 98 48.5 180.5t131.5 130.5t180 48q127 0 225 -79l-45 -44q-79 60 -180 60q-123 0 -209 -86.5t-86 -209.5t86 -210t209 -87q100 0 179 60l46 -43q-96 -76 -214 -79h-16v-34h10q34 0 53.5 -21t19.5 -51.5t-21.5 -52
t-55.5 -21.5h-86v40h82q19 0 28.5 10t9.5 23q0 10 -3.5 17.5t-12 12.5t-22.5 5h-42z" />
    <glyph glyph-name="Egrave" unicode="&#xc8;" horiz-adv-x="578" 
d="M233 900h83l69 -125h-60zM106 700h416v-60h-352v-246h348v-60h-348v-274h355v-60h-419v700z" />
    <glyph glyph-name="Eacute" unicode="&#xc9;" horiz-adv-x="578" 
d="M319 900h83l-92 -125h-59zM106 700h416v-60h-352v-246h348v-60h-348v-274h355v-60h-419v700z" />
    <glyph glyph-name="Ecircumflex" unicode="&#xca;" horiz-adv-x="578" 
d="M277 900h64l123 -134h-71l-84 95l-84 -95h-72zM106 700h416v-60h-352v-246h348v-60h-348v-274h355v-60h-419v700z" />
    <glyph glyph-name="Edieresis" unicode="&#xcb;" horiz-adv-x="579" 
d="M205 823q-11 0 -21 5.5t-15.5 15t-5.5 20.5q0 17 12.5 29.5t29.5 12.5t29.5 -12.5t12.5 -29.5q0 -11 -6 -20.5t-15.5 -15t-20.5 -5.5zM414 823q-17 0 -29 12t-12 29t12 29.5t29 12.5t29.5 -12.5t12.5 -29.5t-12.5 -29t-29.5 -12zM107 700h415v-60h-351v-246h348v-60h-348
v-274h355v-60h-419v700z" />
    <glyph glyph-name="Igrave" unicode="&#xcc;" horiz-adv-x="295" 
d="M185 775l-93 125h84l68 -125h-59zM137 0v700h64v-700h-64z" />
    <glyph glyph-name="Iacute" unicode="&#xcd;" horiz-adv-x="276" 
d="M131 900h84l-93 -125h-59zM106 0v700h64v-700h-64z" />
    <glyph glyph-name="Icircumflex" unicode="&#xce;" horiz-adv-x="277" 
d="M107 900h64l123 -134h-71l-84 95l-84 -95h-71zM107 700h64v-700h-64v700z" />
    <glyph glyph-name="Idieresis" unicode="&#xcf;" horiz-adv-x="277" 
d="M34 823q-11 0 -21 5.5t-15.5 15t-5.5 20.5q0 17 12.5 29.5t29.5 12.5t29.5 -12.5t12.5 -29.5t-12.5 -29t-29.5 -12zM243 823q-11 0 -20.5 5.5t-15 15t-5.5 20.5q0 17 12 29.5t29 12.5q18 0 30 -12.5t12 -29.5t-12 -29t-30 -12zM107 0v700h64v-700h-64z" />
    <glyph glyph-name="Eth" unicode="&#xd0;" horiz-adv-x="836" 
d="M143 700h246q98 0 181 -47t131.5 -127.5t48.5 -175.5t-48.5 -175.5t-131.5 -127.5t-181 -47h-246v324h-107v61h107v315zM207 62h182q123 0 209.5 84.5t86.5 203.5q0 78 -39.5 144t-107.5 105t-149 39h-182v-253h115v-61h-115v-262z" />
    <glyph glyph-name="Ntilde" unicode="&#xd1;" horiz-adv-x="746" 
d="M476 863l36 36v-62l-23 -22q-36 -36 -95 -2l-45 27q-45 26 -68 2l-42 -42v61l29 29q34 34 92 0l44 -26q46 -27 72 -1zM106 700h72l398 -597v597h64v-700h-72l-398 598v-598h-64v700z" />
    <glyph glyph-name="Ograve" unicode="&#xd2;" horiz-adv-x="880" 
d="M437 775l-93 125h84l68 -125h-59zM440.5 709q97.5 0 180.5 -48t131 -130.5t48 -180.5t-48 -180.5t-131 -130.5t-180.5 -48t-180.5 48t-131.5 130.5t-48.5 180.5t48.5 180.5t131.5 130.5t180.5 48zM440 646q-123 0 -209 -86.5t-86 -209.5t86 -209.5t209 -86.5t209.5 86.5
t86.5 209.5t-86.5 209.5t-209.5 86.5z" />
    <glyph glyph-name="Oacute" unicode="&#xd3;" horiz-adv-x="880" 
d="M453 900h84l-93 -125h-59zM440.5 709q97.5 0 180.5 -48t131 -130.5t48 -180.5t-48 -180.5t-131 -130.5t-180.5 -48t-180.5 48t-131.5 130.5t-48.5 180.5t48.5 180.5t131.5 130.5t180.5 48zM440 646q-123 0 -209 -86.5t-86 -209.5t86 -209.5t209 -86.5t209.5 86.5
t86.5 209.5t-86.5 209.5t-209.5 86.5z" />
    <glyph glyph-name="Ocircumflex" unicode="&#xd4;" horiz-adv-x="880" 
d="M408 900h64l123 -134h-71l-84 95l-84 -95h-71zM440.5 709q97.5 0 180.5 -48t131 -130.5t48 -180.5t-48 -180.5t-131 -130.5t-180.5 -48t-180.5 48t-131.5 130.5t-48.5 180.5t48.5 180.5t131.5 130.5t180.5 48zM440 646q-123 0 -209 -86.5t-86 -209.5t86 -209.5t209 -86.5
t209.5 86.5t86.5 209.5t-86.5 209.5t-209.5 86.5z" />
    <glyph glyph-name="Otilde" unicode="&#xd5;" horiz-adv-x="880" 
d="M542 864l36 36v-62l-23 -23q-36 -36 -94 -2l-46 27q-44 26 -68 2l-42 -42v61l29 30q34 34 92 -1l45 -26q45 -26 71 0zM440.5 709q97.5 0 180.5 -48t131 -130.5t48 -180.5t-48 -180.5t-131 -130.5t-180.5 -48t-180.5 48t-131.5 130.5t-48.5 180.5t48.5 180.5t131.5 130.5
t180.5 48zM440 646q-123 0 -209 -86.5t-86 -209.5t86 -209.5t209 -86.5t209.5 86.5t86.5 209.5t-86.5 209.5t-209.5 86.5z" />
    <glyph glyph-name="Odieresis" unicode="&#xd6;" horiz-adv-x="880" 
d="M336 823q-18 0 -30 12t-12 29t12 29.5t30 12.5q17 0 29 -12.5t12 -29.5t-12 -29t-29 -12zM545 823q-17 0 -29.5 12t-12.5 29t12.5 29.5t29.5 12.5t29.5 -12.5t12.5 -29.5q0 -11 -6 -20.5t-15.5 -15t-20.5 -5.5zM440.5 709q97.5 0 180.5 -48t131 -130.5t48 -180.5
t-48 -180.5t-131 -130.5t-180.5 -48t-180.5 48t-131.5 130.5t-48.5 180.5t48.5 180.5t131.5 130.5t180.5 48zM440 646q-123 0 -209 -86.5t-86 -209.5t86 -209.5t209 -86.5t209.5 86.5t86.5 209.5t-86.5 209.5t-209.5 86.5z" />
    <glyph glyph-name="multiply" unicode="&#xd7;" horiz-adv-x="453" 
d="M227 352l133 133l43 -43l-133 -134l133 -133l-43 -43l-133 133l-134 -133l-43 43l133 133l-133 134l43 43z" />
    <glyph glyph-name="Oslash" unicode="&#xd8;" horiz-adv-x="880" 
d="M645 750l-37 -82q87 -46 139.5 -131t52.5 -187q0 -98 -48 -180.5t-131 -130.5t-181 -48q-66 0 -126 23l-29 -64h-65l40 89q-82 47 -131 130t-49 181t48.5 180.5t131.5 130.5t180 48q59 0 114 -18l26 59h65zM286 97l242 536q-43 13 -88 13q-81 0 -149 -39.5t-107 -107.5
t-39 -149q0 -80 38 -147t103 -106zM582 610l-243 -539q49 -17 101 -17q123 0 209.5 86.5t86.5 209.5q0 33 -7 65.5t-20.5 60.5t-32.5 53t-42.5 45.5t-51.5 35.5z" />
    <glyph glyph-name="Ugrave" unicode="&#xd9;" 
d="M274 918h83l68 -125h-59zM591 700h65v-442q0 -110 -79 -188.5t-196 -78.5t-196 78.5t-79 188.5v442h66v-435q0 -44 16.5 -83t44.5 -67t66.5 -44.5t81.5 -16.5q87 0 148.5 61.5t61.5 149.5v435z" />
    <glyph glyph-name="Uacute" unicode="&#xda;" 
d="M389 900h84l-93 -125h-59zM591 265v435h65v-442q0 -110 -79 -188.5t-196 -78.5t-196 78.5t-79 188.5v442h66v-435q0 -44 16.5 -83t44.5 -67t66.5 -44.5t81.5 -16.5q87 0 148.5 61.5t61.5 149.5z" />
    <glyph glyph-name="Ucircumflex" unicode="&#xdb;" 
d="M349 900h64l123 -134h-71l-84 95l-84 -95h-71zM591 265v435h65v-442q0 -110 -79 -188.5t-196 -78.5t-196 78.5t-79 188.5v442h66v-435q0 -44 16.5 -83t44.5 -67t66.5 -44.5t81.5 -16.5q87 0 148.5 61.5t61.5 149.5z" />
    <glyph glyph-name="Udieresis" unicode="&#xdc;" 
d="M277 823q-11 0 -20.5 5.5t-15 15t-5.5 20.5q0 17 12 29.5t29 12.5q18 0 30 -12.5t12 -29.5t-12 -29t-30 -12zM487 823q-18 0 -30 12t-12 29t12 29.5t30 12.5q17 0 29 -12.5t12 -29.5t-12 -29t-29 -12zM591 265v435h65v-442q0 -110 -79 -188.5t-196 -78.5t-196 78.5
t-79 188.5v442h66v-435q0 -44 16.5 -83t44.5 -67t66.5 -44.5t81.5 -16.5q87 0 148.5 61.5t61.5 149.5z" />
    <glyph glyph-name="Yacute" unicode="&#xdd;" horiz-adv-x="670" 
d="M348 900h84l-93 -125h-59zM556 700h70l-259 -407v-293h-64v293l-259 407h71l220 -346z" />
    <glyph glyph-name="Thorn" unicode="&#xde;" horiz-adv-x="604" 
d="M106 700h64v-128h146q93 0 150.5 -52.5t57.5 -140.5q0 -57 -25.5 -100.5t-72.5 -67.5t-110 -24h-146v-187h-64v700zM171 250h144q64 0 104.5 35.5t40.5 93.5q0 39 -19.5 68.5t-52.5 45t-73 15.5h-144v-258z" />
    <glyph glyph-name="germandbls" unicode="&#xdf;" horiz-adv-x="680" 
d="M87 0v523q0 58 28.5 99.5t83 63t130.5 22.5q59 -1 105.5 -14t77 -37t47 -58t16.5 -76q0 -54 -29.5 -95t-80.5 -63q59 -23 95 -69.5t36 -107.5q0 -86 -64.5 -136.5t-162.5 -51.5h-156v62h144q77 1 124.5 34t47.5 96q0 61 -48 98.5t-126 36.5v65q71 2 112 35.5t41 91.5
q0 61 -45.5 93.5t-132.5 33.5q-59 -1 -99 -15.5t-60 -42.5t-20 -69v-519h-64z" />
    <glyph glyph-name="agrave" unicode="&#xe0;" horiz-adv-x="553" 
d="M186 711h84l68 -125h-59zM110 408l-25 49q68 52 190 52q102 0 157.5 -57.5t55.5 -158.5v-293h-56v53q-26 -27 -76 -44t-99 -17q-60 0 -103.5 20t-67.5 60t-24 97q0 78 54 124.5t153 46.5q86 -1 156 -39q-2 72 -42 110.5t-114 38.5q-103 0 -159 -42zM425 107v138
q-61 36 -156 36q-72 0 -108 -30.5t-36 -83.5q0 -55 34.5 -84t103.5 -29q38 0 85 14.5t77 38.5z" />
    <glyph glyph-name="aacute" unicode="&#xe1;" horiz-adv-x="553" 
d="M274 711h84l-93 -125h-59zM110 408l-25 49q68 52 190 52q102 0 157.5 -57.5t55.5 -158.5v-293h-56v53q-26 -27 -76 -44t-99 -17q-60 0 -103.5 20t-67.5 60t-24 97q0 78 54 124.5t153 46.5q86 -1 156 -39q-1 48 -19.5 81.5t-53 50.5t-83.5 17q-103 0 -159 -42zM425 107
v138q-61 36 -156 36q-72 0 -108 -30.5t-36 -83.5q0 -55 34.5 -84t103.5 -29q38 0 85 14.5t77 38.5z" />
    <glyph glyph-name="acircumflex" unicode="&#xe2;" horiz-adv-x="553" 
d="M235 711h64l123 -134h-71l-84 95l-84 -95h-71zM110 408l-25 49q68 52 190 52q68 0 116.5 -26.5t72.5 -75t24 -114.5v-293h-56v53q-26 -27 -76 -44t-99 -17q-60 0 -103.5 20t-67.5 60t-24 97q0 78 54 124.5t153 46.5q86 -1 156 -39q-2 72 -42 110.5t-114 38.5
q-103 0 -159 -42zM425 107v138q-61 36 -156 36q-72 0 -108 -30.5t-36 -83.5q0 -55 34.5 -84t103.5 -29q38 0 85 14.5t77 38.5z" />
    <glyph glyph-name="atilde" unicode="&#xe3;" horiz-adv-x="553" 
d="M376 674l36 36v-62l-22 -22q-37 -36 -95 -2l-45 27q-45 26 -69 2l-42 -42v61l29 30q34 33 93 -1l44 -26q46 -26 71 -1zM110 408l-25 49q68 52 190 52q68 0 116.5 -26.5t72.5 -75t24 -114.5v-293h-56v53q-26 -27 -76 -44t-99 -17q-60 0 -103.5 20t-67.5 60t-24 97
q0 78 54 124.5t153 46.5q86 -1 156 -39q-2 73 -42 111t-114 38q-103 0 -159 -42zM425 107v138q-61 36 -156 36q-72 0 -108 -30.5t-36 -83.5q0 -55 34.5 -84t103.5 -29q38 0 85 14.5t77 38.5z" />
    <glyph glyph-name="adieresis" unicode="&#xe4;" horiz-adv-x="553" 
d="M166.5 634q-11.5 0 -21 5.5t-15 15t-5.5 20.5q0 17 12 29.5t29 12.5t29.5 -12.5t12.5 -29.5q0 -11 -5.5 -20.5t-15 -15t-21 -5.5zM376 634q-18 0 -30 12t-12 29t12 29.5t30 12.5q17 0 29 -12.5t12 -29.5t-12 -29t-29 -12zM110 408l-25 49q68 52 190 52q102 0 157.5 -57.5
t55.5 -158.5v-293h-56v53q-26 -27 -76 -44t-99 -17q-60 0 -103.5 20t-67.5 60t-24 97q0 78 54 124.5t153 46.5q86 -1 156 -39q-2 72 -42 110.5t-114 38.5q-103 0 -159 -42zM425 107v138q-61 36 -156 36q-72 0 -108 -30.5t-36 -83.5q0 -55 34.5 -84t103.5 -29q38 0 85 14.5
t77 38.5z" />
    <glyph glyph-name="aring" unicode="&#xe5;" horiz-adv-x="553" 
d="M291 748q42 0 72 -30t30 -71q0 -43 -29.5 -73t-72.5 -30q-42 0 -71.5 30t-29.5 73q0 13 3.5 26t10 24t15.5 20.5t20.5 16t24.5 10.5t27 4zM291 697q-21 0 -36 -15t-15 -35q0 -15 7 -27t18.5 -19t25.5 -7t26 7t19 19t7 27q0 20 -15.5 35t-36.5 15zM110 408l-25 49
q68 52 190 52q102 0 157.5 -57.5t55.5 -158.5v-293h-56v53q-26 -27 -76 -44t-99 -17q-60 0 -103.5 20t-67.5 60t-24 97q0 78 54 124.5t153 46.5q86 -1 156 -39q-2 73 -42 111t-114 38q-103 0 -159 -42zM425 107v138q-61 36 -156 36q-72 0 -108 -30.5t-36 -83.5
q0 -55 34.5 -84t103.5 -29q38 0 85 14.5t77 38.5z" />
    <glyph glyph-name="ae" unicode="&#xe6;" horiz-adv-x="988" 
d="M110 408l-25 49q69 52 190 52q77 0 126.5 -34.5t67.5 -100.5q31 61 90 97.5t130 36.5q117 0 187 -82q53 -61 45 -124q-7 -58 -66 -69q-11 -2 -24 -2h-329q0 -77 57 -128t137 -51q93 0 142 46l45 -44q-66 -62 -185 -62q-65 0 -121 31.5t-89 83.5v-107h-56v53
q-26 -27 -76 -44t-99 -17q-45 0 -81 11.5t-61.5 33.5t-39 55.5t-13.5 76.5q0 78 54 124.5t153 46.5q86 -1 156 -39q-1 48 -19.5 81.5t-53 50.5t-83.5 17q-103 0 -159 -42zM503 289h304q34 0 43 26t-10 56q-18 33 -57.5 56t-93.5 23q-30 0 -58 -8.5t-50 -23.5t-39.5 -35
t-27.5 -44.5t-11 -49.5zM425 107v138q-60 37 -156 37q-72 -1 -108 -31.5t-36 -83.5q0 -54 34.5 -83.5t103.5 -29.5q38 0 85 14.5t77 38.5z" />
    <glyph glyph-name="ccedilla" unicode="&#xe7;" horiz-adv-x="559" 
d="M278 -72v71q-89 18 -147.5 88.5t-58.5 163.5q0 107 76 182t183 75q91 0 161 -56l-44 -44q-51 39 -117 39q-82 0 -139 -57t-57 -139.5t57 -139.5t139 -57q66 0 116 38l44 -44q-64 -51 -146 -55h-27v-28h10q23 0 40 -10t25.5 -26t8.5 -35q0 -31 -21.5 -53t-56.5 -22h-85v41
h82q18 0 27.5 10t9.5 23q0 10 -3.5 17.5t-12 12.5t-21.5 5h-43z" />
    <glyph glyph-name="egrave" unicode="&#xe8;" horiz-adv-x="630" 
d="M256 711h84l68 -125h-59zM480 98l44 -44q-66 -62 -184 -62q-53 0 -101 18.5t-85 51.5t-59.5 82t-22.5 106q0 107 75.5 182.5t182.5 75.5q117 0 187 -82q53 -62 45 -124q-7 -58 -66 -69q-11 -2 -24 -2h-329q0 -77 57 -128t137 -51q93 0 143 46zM144 289h304
q30 0 40.5 19.5t-1.5 45.5q-12 37 -53.5 66.5t-103.5 29.5q-50 0 -92 -22.5t-66.5 -59t-27.5 -79.5z" />
    <glyph glyph-name="eacute" unicode="&#xe9;" horiz-adv-x="630" 
d="M324 711h84l-93 -125h-59zM480 98l44 -44q-66 -62 -184 -62q-53 0 -101 18.5t-85 51.5t-59.5 82t-22.5 106q0 107 75.5 182.5t182.5 75.5q117 0 187 -82q53 -62 45 -124q-7 -58 -66 -69q-11 -2 -24 -2h-329q0 -77 57 -128t137 -51q93 0 143 46zM144 289h304q32 0 42 21.5
t-4 49.5q-9 22 -28.5 42t-53 34t-74.5 14q-50 0 -92 -22.5t-66.5 -59t-27.5 -79.5z" />
    <glyph glyph-name="ecircumflex" unicode="&#xea;" horiz-adv-x="630" 
d="M300 711h64l123 -134h-71l-84 95l-84 -95h-71zM480 98l44 -44q-66 -62 -184 -62q-53 0 -101 18.5t-85 51.5t-59.5 82t-22.5 106q0 107 75.5 182.5t182.5 75.5q117 0 187 -82q53 -62 45 -124q-7 -58 -66 -69q-11 -2 -24 -2h-329q0 -77 57 -128t137 -51q93 0 143 46z
M144 289h304q33 0 42.5 24t-7.5 54q-10 21 -29.5 39t-52 31t-71.5 13q-50 0 -92 -22.5t-66.5 -59t-27.5 -79.5z" />
    <glyph glyph-name="edieresis" unicode="&#xeb;" horiz-adv-x="630" 
d="M228 634q-18 0 -30 12t-12 29t12 29.5t30 12.5q17 0 29 -12.5t12 -29.5t-12 -29t-29 -12zM437 634q-17 0 -29.5 12t-12.5 29t12.5 29.5t29.5 12.5t29.5 -12.5t12.5 -29.5t-12.5 -29t-29.5 -12zM480 98l44 -44q-66 -62 -184 -62q-53 0 -101 18.5t-85 51.5t-59.5 82
t-22.5 106q0 107 75.5 182.5t182.5 75.5q117 0 187 -82q53 -62 45 -124q-7 -58 -66 -69q-11 -2 -24 -2h-329q0 -77 57 -128t137 -51q93 0 143 46zM144 289h304q33 0 42.5 23t-6.5 52q-10 22 -29.5 40.5t-52.5 32t-72 13.5q-50 0 -92 -22.5t-66.5 -59t-27.5 -79.5z" />
    <glyph glyph-name="igrave" unicode="&#xec;" horiz-adv-x="331" 
d="M184 575l-93 125h84l68 -125h-59zM159 500h61v-500h-61v500z" />
    <glyph glyph-name="iacute" unicode="&#xed;" horiz-adv-x="289" 
d="M140 700h83l-92 -125h-59zM116 500h61v-500h-61v500z" />
    <glyph glyph-name="icircumflex" unicode="&#xee;" horiz-adv-x="488" 
d="M214 700h64l124 -134h-72l-84 95l-84 -95h-71zM217 500h61v-500h-61v500z" />
    <glyph glyph-name="idieresis" unicode="&#xef;" horiz-adv-x="470" 
d="M133 623q-9 0 -16.5 3t-13 8.5t-9 13.5t-3.5 16q0 17 12.5 29.5t29.5 12.5t29 -12.5t12 -29.5t-12 -29t-29 -12zM342 623q-17 0 -29 12t-12 29t12 29.5t29 12.5q18 0 30 -12.5t12 -29.5t-12 -29t-30 -12zM208 500h61v-500h-61v500z" />
    <glyph glyph-name="eth" unicode="&#xf0;" horiz-adv-x="628" 
d="M151 689v61q124 0 222 -67l76 56l29 -36l-66 -48q76 -67 112 -172t21 -236q-13 -115 -74 -185t-160 -70q-73 0 -127 36t-79 93t-25 128q0 114 63 189.5t163 75.5q60 0 103.5 -30.5t67.5 -79.5q-8 67 -37.5 122.5t-75.5 92.5l-90 -66l-29 36l72 53q-74 47 -166 47z
M312 453q-80 0 -124.5 -58.5t-44.5 -145.5q0 -85 44 -140.5t125 -55.5q71 0 116.5 53.5t54.5 142.5q0 57 -19.5 102.5t-58.5 73.5t-93 28z" />
    <glyph glyph-name="ntilde" unicode="&#xf1;" horiz-adv-x="608" 
d="M401 669l36 36v-62l-23 -23q-36 -36 -95 -1l-45 26q-44 26 -68 2l-42 -42v61l29 30q34 34 92 0l45 -27q45 -26 71 0zM148 500v-46q73 55 164 53q111 -1 162.5 -67t52.5 -199v-241h-63v241q0 108 -38.5 158.5t-130.5 49.5q-75 0 -146 -48v-401h-63v500h62z" />
    <glyph glyph-name="ograve" unicode="&#xf2;" horiz-adv-x="662" 
d="M251 700h83l68 -125h-59zM331 508q52 0 100 -20.5t83 -55t55.5 -82.5t20.5 -100q0 -107 -76 -182.5t-183 -75.5t-183 75.5t-76 182.5t76 182.5t183 75.5zM331 446q-82 0 -139 -57t-57 -139t57 -139t139 -57t139 57t57 139t-57 139t-139 57z" />
    <glyph glyph-name="oacute" unicode="&#xf3;" horiz-adv-x="662" 
d="M329 700h84l-93 -125h-59zM331 508q52 0 100 -20.5t83 -55t55.5 -82.5t20.5 -100q0 -107 -76 -182.5t-183 -75.5t-183 75.5t-76 182.5t76 182.5t183 75.5zM331 446q-82 0 -139 -57t-57 -139t57 -139t139 -57t139 57t57 139t-57 139t-139 57z" />
    <glyph glyph-name="ocircumflex" unicode="&#xf4;" horiz-adv-x="662" 
d="M298 700h64l123 -134h-71l-84 95l-84 -95h-71zM331 508q52 0 100 -20.5t83 -55t55.5 -82.5t20.5 -100q0 -107 -76 -182.5t-183 -75.5t-183 75.5t-76 182.5t76 182.5t183 75.5zM331 446q-82 0 -139 -57t-57 -139t57 -139t139 -57t139 57t57 139t-57 139t-139 57z" />
    <glyph glyph-name="otilde" unicode="&#xf5;" horiz-adv-x="662" 
d="M434 663l36 36v-62l-22 -22q-37 -36 -95 -2l-45 27q-45 26 -69 2l-42 -42v61l29 29q34 34 92 0l45 -26q45 -27 71 -1zM331 508q70 0 129.5 -34.5t94.5 -94t35 -129.5q0 -107 -76 -182.5t-183 -75.5t-183 75.5t-76 182.5t76 182.5t183 75.5zM331 446q-82 0 -139 -57
t-57 -139t57 -139t139 -57t139 57t57 139q0 54 -26 99t-71 71t-99 26z" />
    <glyph glyph-name="odieresis" unicode="&#xf6;" horiz-adv-x="662" 
d="M228 623q-11 0 -20.5 5.5t-15 15t-5.5 20.5q0 17 12 29.5t29 12.5t29.5 -12.5t12.5 -29.5t-12.5 -29t-29.5 -12zM438 623q-18 0 -30 12t-12 29t12 29.5t30 12.5q17 0 29 -12.5t12 -29.5t-12 -29t-29 -12zM331 508q52 0 100 -20.5t83 -55t55.5 -82.5t20.5 -100
q0 -107 -76 -182.5t-183 -75.5t-183 75.5t-76 182.5t76 182.5t183 75.5zM331 446q-82 0 -139 -57t-57 -139t57 -139t139 -57t139 57t57 139t-57 139t-139 57z" />
    <glyph glyph-name="divide" unicode="&#xf7;" horiz-adv-x="514" 
d="M258.5 467q17.5 0 29.5 -12t12 -30q0 -17 -12 -29t-29.5 -12t-29.5 12t-12 29q0 18 12 30t29.5 12zM50 288h414v-61h-414v61zM257.5 130q17.5 0 29.5 -12t12 -29t-12 -29t-29.5 -12t-29.5 12t-12 29t12 29t29.5 12z" />
    <glyph glyph-name="oslash" unicode="&#xf8;" horiz-adv-x="662" 
d="M494 550l-34 -76q39 -23 68 -56.5t45.5 -77t16.5 -90.5q0 -107 -76 -182.5t-183 -75.5q-42 0 -82 13l-25 -55h-64l36 80q-57 35 -90.5 93t-33.5 127q0 107 76 182.5t183 75.5q38 0 74 -11l24 53h65zM221 87l159 353q-24 6 -49 6q-82 0 -139 -57t-57 -139q0 -50 23 -93
t63 -70zM434 417l-159 -355q27 -8 56 -8q82 0 139 57t57 139q0 52 -25 96.5t-68 70.5z" />
    <glyph glyph-name="ugrave" unicode="&#xf9;" horiz-adv-x="617" 
d="M217 711h83l68 -125h-59zM467 500h64v-500h-62v61q-77 -70 -179 -69q-108 2 -158 68t-50 199v241h63v-241q0 -108 36.5 -158.5t125.5 -49.5q86 0 160 64v385z" />
    <glyph glyph-name="uacute" unicode="&#xfa;" horiz-adv-x="617" 
d="M314 711h83l-92 -125h-59zM467 500h64v-500h-62v61q-77 -70 -179 -69q-108 2 -158 68t-50 199v241h63v-241q0 -108 36.5 -158.5t125.5 -49.5q86 0 160 64v385z" />
    <glyph glyph-name="ucircumflex" unicode="&#xfb;" horiz-adv-x="617" 
d="M273 711h64l124 -134h-72l-84 95l-83 -95h-72zM467 500h64v-500h-62v61q-77 -70 -179 -69q-108 2 -158 68t-50 199v241h63v-241q0 -108 36.5 -158.5t125.5 -49.5q86 0 160 64v385z" />
    <glyph glyph-name="udieresis" unicode="&#xfc;" horiz-adv-x="617" 
d="M201 659q17 0 29.5 -12.5t12.5 -29.5q0 -11 -5.5 -20.5t-15 -15.5t-21 -6t-21 6t-15 15.5t-5.5 20.5q0 17 12 29.5t29 12.5zM411 659q17 0 29 -12.5t12 -29.5t-12 -29.5t-29 -12.5q-18 0 -30 12.5t-12 29.5t12 29.5t30 12.5zM467 500h64v-500h-62v61q-77 -70 -179 -69
q-108 2 -158 68t-50 199v241h63v-241q0 -108 36.5 -158.5t125.5 -49.5q86 0 160 64v385z" />
    <glyph glyph-name="yacute" unicode="&#xfd;" horiz-adv-x="579" 
d="M287 700h84l-93 -125h-59zM445 500h63v-455q-3 -114 -56 -165.5t-169 -49.5q-108 1 -186 45l8 50q77 -40 178 -39q85 0 121.5 31.5t42.5 112.5v23q-31 -23 -72.5 -38t-84.5 -15q-113 -1 -167.5 65t-54.5 202v233h63v-233q0 -72 15.5 -116.5t53 -68t99.5 -23.5
q74 0 146 48v393z" />
    <glyph glyph-name="thorn" unicode="&#xfe;" horiz-adv-x="593" 
d="M86 700h57v-242q28 23 67 36.5t80 13.5q229 0 230 -254q1 -131 -59 -196.5t-171 -65.5q-77 1 -141 45v-241h-63v904zM149 401v-307q24 -19 61 -30.5t74 -11.5q173 0 173 202q0 98 -40.5 147t-132.5 49q-38 0 -75 -13t-60 -36z" />
    <glyph glyph-name="ydieresis" unicode="&#xff;" horiz-adv-x="579" 
d="M178 623q-11 0 -20.5 5.5t-15 15t-5.5 20.5q0 17 12 29.5t29 12.5t29.5 -12.5t12.5 -29.5q0 -11 -5.5 -20.5t-15.5 -15t-21 -5.5zM388 623q-18 0 -30 12t-12 29t12 29.5t30 12.5q17 0 29 -12.5t12 -29.5t-12 -29t-29 -12zM445 500h63v-455q-3 -114 -56 -165.5t-169 -49.5
q-108 1 -186 45l8 50q77 -40 178 -39q85 0 121.5 31.5t42.5 112.5v23q-31 -23 -72.5 -38t-84.5 -15q-113 -1 -167.5 65t-54.5 202v233h63v-233q0 -72 15.5 -116.5t53 -68t99.5 -23.5q74 0 146 48v393z" />
    <glyph glyph-name="Amacron" unicode="&#x100;" 
d="M224 900h305v-52h-305v52zM341 700h72l297 -700h-68l-94 218h-342l-94 -218h-68zM522 282l-145 342l-145 -342h290z" />
    <glyph glyph-name="amacron" unicode="&#x101;" horiz-adv-x="553" 
d="M114 711h306v-52h-306v52zM110 408l-25 49q68 52 190 52q68 0 116.5 -26.5t72.5 -75t24 -114.5v-293h-56v53q-26 -27 -76 -44t-99 -17q-60 0 -103.5 20t-67.5 60t-24 97q0 78 54 124.5t153 46.5q86 -1 156 -39q-2 73 -42 111t-114 38q-103 0 -159 -42zM425 107v138
q-61 36 -156 36q-72 0 -108 -30.5t-36 -83.5q0 -55 34.5 -84t103.5 -29q38 0 85 14.5t77 38.5z" />
    <glyph glyph-name="Abreve" unicode="&#x102;" 
d="M457 900h54q-6 -50 -44 -83.5t-90 -33.5q-33 0 -62.5 15t-48 42t-22.5 60h55q6 -30 27.5 -48t51.5 -18q29 0 51 18t28 48zM341 700h72l297 -700h-68l-94 218h-342l-94 -218h-68zM522 282l-145 342l-145 -342h290z" />
    <glyph glyph-name="abreve" unicode="&#x103;" horiz-adv-x="553" 
d="M346 711h54q-6 -50 -44 -83.5t-90 -33.5q-51 0 -89 33.5t-44 83.5h55q6 -30 27.5 -48t51.5 -18q29 0 51 18t28 48zM110 408l-25 49q68 52 190 52q102 0 157.5 -57.5t55.5 -158.5v-293h-56v53q-26 -27 -76 -44t-99 -17q-60 0 -103.5 20t-67.5 60t-24 97q0 78 54 124.5
t153 46.5q86 -1 156 -39q-2 72 -42 110.5t-114 38.5q-103 0 -159 -42zM425 107v138q-61 36 -156 36q-72 0 -108 -30.5t-36 -83.5q0 -55 34.5 -84t103.5 -29q38 0 85 14.5t77 38.5z" />
    <glyph glyph-name="Aogonek" unicode="&#x104;" 
d="M710 0h-27q-59 -34 -60 -80q-1 -44 43 -44h24v-42h-30q-23 0 -41.5 9t-29 26t-10.5 40q0 33 17 53.5t47 37.5l-95 218h-342l-94 -218h-68l297 700h72zM232 282h290l-145 342z" />
    <glyph glyph-name="aogonek" unicode="&#x105;" horiz-adv-x="553" 
d="M488 0h-16q-58 -34 -59 -79q-1 -44 43 -44h23v-42h-29q-36 0 -58.5 20.5t-22.5 54.5q0 32 17 52.5t46 37.5v53q-26 -27 -76 -44t-99 -17q-60 0 -103.5 20t-67.5 60t-24 97q0 78 54 124.5t153 46.5q86 -1 156 -39q-2 72 -42 110.5t-114 38.5q-103 0 -159 -42l-25 49
q68 52 190 52q102 0 157.5 -57.5t55.5 -158.5v-293zM425 107v138q-61 37 -156 37q-72 -1 -108 -31.5t-36 -83.5q0 -55 34.5 -84t103.5 -29q38 0 85 14.5t77 38.5z" />
    <glyph glyph-name="Cacute" unicode="&#x106;" horiz-adv-x="730" 
d="M467 905h84l-93 -125h-59zM631 113l46 -43q-100 -79 -225 -79q-97 0 -180 48t-131.5 130.5t-48.5 180.5t48.5 180.5t131.5 130.5t180 48q127 0 225 -79l-45 -44q-79 60 -180 60q-80 0 -148 -39.5t-107.5 -107.5t-39.5 -149q0 -123 86 -210t209 -87q100 0 179 60z" />
    <glyph glyph-name="cacute" unicode="&#x107;" horiz-adv-x="559" 
d="M324 711h83l-92 -125h-59zM447 92l44 -44q-70 -55 -160 -55q-107 0 -183 75t-76 183q0 107 76 182t183 75q91 0 161 -56l-44 -44q-51 39 -117 39q-82 0 -139 -57t-57 -139q0 -33 9.5 -63t28 -54t42.5 -42t54 -28t62 -10q66 0 116 38z" />
    <glyph glyph-name="Cdotaccent" unicode="&#x10a;" horiz-adv-x="730" 
d="M452.5 828q-17.5 0 -29.5 12.5t-12 29.5t12 29t29.5 12t29.5 -12t12 -29t-12 -29.5t-29.5 -12.5zM631 113l46 -43q-100 -79 -225 -79q-97 0 -180 48t-131.5 130.5t-48.5 180.5t48.5 180.5t131.5 130.5t180 48q127 0 225 -79l-45 -44q-79 60 -180 60q-80 0 -148 -39.5
t-107.5 -107.5t-39.5 -149q0 -123 86 -210t209 -87q100 0 179 60z" />
    <glyph glyph-name="cdotaccent" unicode="&#x10b;" horiz-adv-x="559" 
d="M327 634q-17 0 -29 12t-12 29.5t12 29.5t29 12t29.5 -12t12.5 -29.5t-12.5 -29.5t-29.5 -12zM447 92l44 -44q-70 -55 -160 -55q-107 0 -183 75t-76 183q0 107 76 182t183 75q91 0 161 -56l-44 -44q-51 39 -117 39q-82 0 -139 -57t-57 -139.5t57 -139.5t139 -57
q66 0 116 38z" />
    <glyph glyph-name="Ccaron" unicode="&#x10c;" horiz-adv-x="730" 
d="M536 905h72l-124 -134h-63l-124 134h72l83 -94zM631 113l46 -43q-100 -79 -224 -79q-98 0 -181 48t-131.5 130.5t-48.5 180.5t48.5 180.5t131.5 130.5t181 48q126 0 224 -79l-45 -44q-79 60 -179 60q-124 0 -210 -86.5t-86 -209.5t86 -210t210 -87q99 0 178 60z" />
    <glyph glyph-name="ccaron" unicode="&#x10d;" horiz-adv-x="570" 
d="M411 711h71l-123 -134h-64l-123 134h71l84 -94zM447 92l44 -44q-70 -55 -160 -55q-107 0 -183 75t-76 183q0 107 76 182t183 75q91 0 161 -56l-44 -44q-51 39 -117 39q-54 0 -99 -26t-71 -71.5t-26 -98.5q0 -33 9.5 -63t28 -54t42.5 -42t54 -28t62 -10q66 0 116 38z" />
    <glyph glyph-name="Dcaron" unicode="&#x10e;" horiz-adv-x="805" 
d="M368 905h71l-123 -134h-64l-123 134h71l84 -94zM106 700h246q98 0 181 -47t131 -127.5t48 -175.5t-48 -175.5t-131 -127.5t-181 -47h-246v700zM170 62h182q123 0 209.5 84.5t86.5 203.5q0 78 -39.5 144t-107.5 105t-149 39h-182v-576z" />
    <glyph glyph-name="dcaron" unicode="&#x10f;" horiz-adv-x="701" 
d="M618 709q17 0 29.5 -12t12.5 -29q0 -9 -3 -20.5t-10.5 -26t-25.5 -24t-43 -9.5q23 17 34 39q-10 1 -18 7t-13 14.5t-5 19.5q0 17 12.5 29t29.5 12zM444 700h62v-700h-57v42q-27 -23 -66 -36.5t-80 -13.5q-229 0 -231 254q0 131 60 196.5t171 64.5q79 0 141 -42v235z
M444 99v310q-51 39 -135 39q-173 0 -173 -202q0 -65 16.5 -107.5t55.5 -65.5t101 -23q38 0 75 13t60 36z" />
    <glyph glyph-name="Dcroat" unicode="&#x110;" horiz-adv-x="842" 
d="M144 700h246q97 0 180 -47t131.5 -127.5t48.5 -175.5t-48.5 -175.5t-131.5 -127.5t-180 -47h-246v324h-121v52h121v324zM208 62h182q123 0 209 84.5t86 203.5q0 78 -39 144t-107.5 105t-148.5 39h-182v-262h120v-52h-120v-262z" />
    <glyph glyph-name="dcroat" unicode="&#x111;" horiz-adv-x="670" 
d="M628 640v-53h-122v-587h-57v42q-27 -23 -66 -36.5t-80 -13.5q-229 0 -231 254q0 131 60 196.5t171 64.5q79 0 141 -42v123h-122v52h122v60h62v-60h122zM444 99v310q-51 39 -135 39q-173 0 -173 -202q0 -65 16.5 -107.5t55.5 -65.5t101 -23q38 0 75 13t60 36z" />
    <glyph glyph-name="Emacron" unicode="&#x112;" horiz-adv-x="578" 
d="M156 900h306v-52h-306v52zM106 700h416v-60h-352v-246h348v-60h-348v-274h355v-60h-419v700z" />
    <glyph glyph-name="emacron" unicode="&#x113;" horiz-adv-x="630" 
d="M173 710h306v-52h-306v52zM480 98l44 -44q-66 -62 -184 -62q-53 0 -101 18.5t-85 51.5t-59.5 82t-22.5 106q0 107 75.5 182.5t182.5 75.5q117 0 187 -82q53 -62 45 -124q-7 -58 -66 -69q-11 -2 -24 -2h-329q0 -77 57 -128t137 -51q93 0 143 46zM144 289h304
q31 0 41.5 21.5t-3.5 48.5q-14 36 -55 63.5t-101 27.5q-50 0 -92 -22.5t-66.5 -59t-27.5 -79.5z" />
    <glyph glyph-name="Edotaccent" unicode="&#x116;" horiz-adv-x="578" 
d="M308.5 823q-17.5 0 -29.5 12t-12 29t12.5 29.5t29.5 12.5t29 -12.5t12 -29.5t-12 -29t-29.5 -12zM106 700h416v-60h-352v-246h348v-60h-348v-274h355v-60h-419v700z" />
    <glyph glyph-name="edotaccent" unicode="&#x117;" horiz-adv-x="630" 
d="M334.5 634q-17.5 0 -29.5 12t-12 29t12 29.5t29.5 12.5t29.5 -12.5t12 -29.5t-12 -29t-29.5 -12zM480 98l44 -44q-66 -62 -184 -62q-53 0 -101 18.5t-85 51.5t-59.5 82t-22.5 106q0 107 75.5 182.5t182.5 75.5q117 0 187 -82q53 -62 45 -124q-7 -58 -66 -69
q-11 -2 -24 -2h-329q0 -77 57 -128t137 -51q93 0 143 46zM144 289h304q35 0 44 26t-11 57q-18 32 -57 55t-94 23q-50 0 -92 -22.5t-66.5 -59t-27.5 -79.5z" />
    <glyph glyph-name="Eogonek" unicode="&#x118;" horiz-adv-x="578" 
d="M525 0h-45q-46 -31 -47 -71q-1 -45 43 -45h23v-42h-29q-36 0 -59 20.5t-23 54.5q0 51 50 83h-332v700h416v-60h-352v-246h348v-60h-348v-274h355v-60z" />
    <glyph glyph-name="eogonek" unicode="&#x119;" horiz-adv-x="630" 
d="M431 -159h-30q-35 0 -58 20.5t-23 54.5q0 47 41 77q-11 -1 -21 -1q-71 0 -131.5 31.5t-98.5 91t-38 135.5q0 107 75.5 182.5t182.5 75.5q117 0 187 -82q53 -62 45 -124q-7 -58 -66 -69q-11 -2 -24 -2h-329q0 -77 57 -128t137 -51q93 0 143 46l44 -44q-24 -22 -52.5 -35.5
t-60.5 -20.5q-45 -30 -46 -71q-1 -44 42 -44h24v-42zM144 289h304q35 0 44 26t-11 56q-18 33 -57 56t-94 23q-49 0 -91.5 -22.5t-67 -59t-27.5 -79.5z" />
    <glyph glyph-name="Ecaron" unicode="&#x11a;" horiz-adv-x="578" 
d="M393 900h71l-123 -134h-64l-124 134h72l84 -95zM106 700h416v-60h-352v-246h348v-60h-348v-274h355v-60h-419v700z" />
    <glyph glyph-name="ecaron" unicode="&#x11b;" horiz-adv-x="630" 
d="M414 711h71l-123 -134h-64l-123 134h71l84 -95zM480 98l44 -44q-66 -62 -184 -62q-53 0 -101 18.5t-85 51.5t-59.5 82t-22.5 106q0 107 75.5 182.5t182.5 75.5q117 0 187 -82q53 -62 45 -124q-7 -58 -66 -69q-11 -2 -24 -2h-329q0 -77 57 -128t137 -51q93 0 143 46z
M144 289h304q37 0 44.5 29.5t-16.5 61.5q-20 30 -57.5 50t-88.5 20q-50 0 -92 -22.5t-66.5 -59t-27.5 -79.5z" />
    <glyph glyph-name="Gbreve" unicode="&#x11e;" horiz-adv-x="763" 
d="M511 905h54q-6 -50 -44 -83t-90 -33q-51 0 -89 33t-44 83h55q6 -29 27.5 -47.5t51.5 -18.5q29 0 51 18.5t28 47.5zM663 334v-265q-98 -78 -223 -78q-97 0 -180 48t-131.5 130.5t-48.5 180.5t48.5 180.5t131.5 130.5t180 48q127 0 224 -79l-44 -44q-79 60 -180 60
q-81 0 -149 -39.5t-107 -107.5t-39 -149q0 -123 86 -209.5t209 -86.5q87 0 159 48v232h64z" />
    <glyph glyph-name="gbreve" unicode="&#x11f;" horiz-adv-x="593" 
d="M374 700h55q-6 -50 -44 -83.5t-90 -33.5q-51 0 -89.5 33.5t-44.5 83.5h55q6 -30 28 -48t51 -18q30 0 51.5 18t27.5 48zM108 -125l8 50q80 -40 178 -39q83 1 115.5 35t35.5 127q-51 -50 -142 -51q-112 0 -171.5 63t-59.5 193q1 132 60 193.5t171 61.5q27 0 54 -6.5
t50.5 -17.5t42.5 -26v42h57v-443q0 -122 -49 -175.5t-164 -51.5q-108 1 -186 45zM444 107v294q-23 23 -60.5 35.5t-74.5 12.5q-47 0 -80.5 -12.5t-53.5 -38t-29.5 -61t-9.5 -84.5q0 -62 16.5 -104.5t55.5 -67t101 -24.5q78 0 135 50z" />
    <glyph glyph-name="Gdotaccent" unicode="&#x120;" horiz-adv-x="763" 
d="M431.5 828q-17.5 0 -29.5 12.5t-12 29.5t12 29t29.5 12t29.5 -12t12 -29t-12 -29.5t-29.5 -12.5zM663 334v-265q-98 -78 -223 -78q-97 0 -180 48t-131.5 130.5t-48.5 180.5t48.5 180.5t131.5 130.5t180 48q127 0 224 -79l-44 -44q-79 60 -180 60q-123 0 -209 -86.5
t-86 -209.5t86 -209.5t209 -86.5q87 0 159 48v232h64z" />
    <glyph glyph-name="gdotaccent" unicode="&#x121;" horiz-adv-x="593" 
d="M300 706q17 0 29.5 -12.5t12.5 -29.5t-12.5 -29t-29.5 -12t-29.5 12t-12.5 29t12.5 29.5t29.5 12.5zM108 -125l8 50q80 -40 178 -39q83 1 115.5 35t35.5 127q-52 -50 -142 -51q-111 0 -171.5 63t-59.5 194q2 254 231 254q27 0 54 -6.5t50.5 -17.5t41.5 -26v42h58v-443
q-1 -122 -49.5 -175.5t-163.5 -51.5q-108 1 -186 45zM444 107v294q-23 23 -60.5 36t-74.5 13q-47 0 -80.5 -13t-54 -38t-29.5 -61t-9 -84q0 -96 41 -146.5t132 -50.5q78 0 135 50z" />
    <glyph glyph-name="Gcommaaccent" unicode="&#x122;" horiz-adv-x="763" 
d="M663 334v-265q-98 -78 -223 -78q-97 0 -180 48t-131.5 130.5t-48.5 180.5t48.5 180.5t131.5 130.5t180 48q127 0 224 -79l-44 -44q-79 60 -180 60q-123 0 -209 -86.5t-86 -209.5t86 -209.5t209 -86.5q87 0 159 48v232h64zM441 -90q17 0 29 -12.5t12 -29.5q0 -29 -19 -54
t-62 -25q22 17 33 38q-7 2 -13.5 5.5t-11.5 9t-7.5 12.5t-2.5 14q0 18 12 30t30 12z" />
    <glyph glyph-name="gcommaaccent" unicode="&#x123;" horiz-adv-x="593" 
d="M343 724q-23 -17 -34 -38q16 -3 26 -14t10 -27q0 -8 -3.5 -16t-9 -13.5t-13 -9t-16.5 -3.5q-17 0 -29.5 12.5t-12.5 29.5q1 29 20 54t62 25zM108 -125l8 50q80 -40 178 -39q83 1 115.5 35t35.5 127q-52 -50 -142 -51q-111 0 -171 63t-60 194q2 254 231 254q41 0 80 -13.5
t66 -36.5v42h58v-443q-1 -122 -49.5 -175.5t-163.5 -51.5q-108 1 -186 45zM444 107v294q-23 23 -60.5 36t-74.5 13q-92 0 -132.5 -49t-40.5 -147q0 -96 41 -146.5t132 -50.5q78 0 135 50z" />
    <glyph glyph-name="Hbar" unicode="&#x126;" horiz-adv-x="779" 
d="M582 700h64v-137h91v-63h-91v-500h-64v335h-386v-335h-64v500h-90v63h90v137h64v-137h386v137zM582 397v103h-386v-103h386z" />
    <glyph glyph-name="hbar" unicode="&#x127;" horiz-adv-x="656" 
d="M134 700h62v-65h100v-52h-100v-129q72 54 160 53q112 0 165.5 -66t53.5 -200v-241h-63v241q0 108 -38.5 158t-130.5 50q-75 0 -146 -48v-401h-63v583h-100v52h100v65z" />
    <glyph glyph-name="Imacron" unicode="&#x12a;" horiz-adv-x="276" 
d="M-15 900h306v-52h-306v52zM106 0v700h64v-700h-64z" />
    <glyph glyph-name="imacron" unicode="&#x12b;" horiz-adv-x="237" 
d="M-34 700h306v-52h-306v52zM89 500h61v-500h-61v500z" />
    <glyph glyph-name="Iogonek" unicode="&#x12e;" horiz-adv-x="276" 
d="M150 -126h23v-42h-29q-36 0 -58.5 20.5t-22.5 54.5q0 55 65 93h-22v700h64v-700q-62 -34 -63 -81q-1 -45 43 -45z" />
    <glyph glyph-name="iogonek" unicode="&#x12f;" horiz-adv-x="238" 
d="M122 620q-17 0 -29 12t-12 29t12 29.5t29 12.5t29.5 -12.5t12.5 -29.5t-12.5 -29t-29.5 -12zM153 0h-1q-62 -34 -63 -81q-1 -45 43 -45h23v-42h-29q-36 0 -59 20.5t-23 54.5q0 56 65 93h-17v500h61v-500z" />
    <glyph glyph-name="Idotaccent" unicode="&#x130;" horiz-adv-x="276" 
d="M139 823q-17 0 -29.5 12t-12.5 29t12.5 29.5t29.5 12.5t29 -12.5t12 -29.5q0 -11 -5.5 -20.5t-15 -15t-20.5 -5.5zM107 0v700h64v-700h-64z" />
    <glyph glyph-name="dotlessi" unicode="&#x131;" horiz-adv-x="238" 
d="M91 500h61v-500h-61v500z" />
    <glyph glyph-name="IJ" unicode="&#x132;" horiz-adv-x="714" 
d="M543 700h65v-411q0 -142 -83.5 -220t-215.5 -78h-24v64h25q104 -1 168.5 59.5t64.5 174.5v411zM106 0v700h64v-700h-64z" />
    <glyph glyph-name="ij" unicode="&#x133;" horiz-adv-x="466" 
d="M130.5 656q16.5 0 28 -11.5t11.5 -28t-11.5 -28t-28 -11.5t-28 11.5t-11.5 28t11.5 28t28 11.5zM341 656q16 0 27.5 -11.5t11.5 -28t-11.5 -28t-27.5 -11.5q-17 0 -28.5 11.5t-11.5 28t11.5 28t28.5 11.5zM100 500h61v-500h-61v500zM310 500h61v-526q0 -68 -36 -108.5
t-105 -39.5h-24v56h24q39 0 59.5 25t20.5 67v526z" />
    <glyph glyph-name="Kcommaaccent" unicode="&#x136;" horiz-adv-x="639" 
d="M478 700h76l-235 -269l276 -431h-76l-243 381l-106 -120v-261h-64v700h64v-353zM321 -84q18 0 30 -12.5t12 -29.5q0 -29 -19 -54t-63 -25q23 17 34 38q-7 1 -13.5 4.5t-11.5 9t-7.5 12.5t-2.5 15t3 16t8.5 13.5t13.5 9t16 3.5z" />
    <glyph glyph-name="kcommaaccent" unicode="&#x137;" horiz-adv-x="558" 
d="M91 0v700h63v-427l228 227h84l-186 -189l232 -311h-74l-202 265l-82 -82v-183h-63zM276 -81q17 0 29.5 -12.5t12.5 -29.5q-1 -29 -20 -54t-62 -25q23 17 33 38q-10 2 -18 7.5t-12.5 14.5t-4.5 19q0 18 12.5 30t29.5 12z" />
    <glyph glyph-name="Lacute" unicode="&#x139;" horiz-adv-x="553" 
d="M279 900h83l-92 -125h-59zM106 700h65v-639h338v-61h-403v700z" />
    <glyph glyph-name="lacute" unicode="&#x13a;" horiz-adv-x="325" 
d="M160 900h84l-93 -125h-59zM116 0v700h61v-700h-61z" />
    <glyph glyph-name="Lcommaaccent" unicode="&#x13b;" horiz-adv-x="553" 
d="M106 700h65v-639h338v-61h-403v700zM306 -84q11 0 20.5 -6t15 -15.5t5.5 -20.5q0 -29 -19 -54t-62 -25q22 17 33 38q-15 2 -25 13.5t-10 27.5q0 17 12 29.5t30 12.5z" />
    <glyph glyph-name="lcommaaccent" unicode="&#x13c;" horiz-adv-x="256" 
d="M103 700h61v-700h-61v700zM134 -81q17 0 29.5 -12.5t12.5 -29.5q-1 -29 -20 -54t-62 -25q23 17 33 38q-15 3 -25 14.5t-10 26.5q0 18 12.5 30t29.5 12z" />
    <glyph glyph-name="Lcaron" unicode="&#x13d;" horiz-adv-x="553" 
d="M468 709q17 0 29.5 -12t12.5 -29q0 -7 -1.5 -15.5t-6.5 -20.5t-13.5 -21.5t-24 -16t-36.5 -6.5q24 17 34 39q-15 2 -25 13.5t-10 27.5q0 17 12 29t29 12zM106 700h65v-639h338v-61h-403v700z" />
    <glyph glyph-name="lcaron" unicode="&#x13e;" horiz-adv-x="382" 
d="M302 709q17 0 29 -12t12 -29q0 -7 -1.5 -15.5t-6.5 -20.5t-13.5 -21.5t-24 -16t-36.5 -6.5q24 17 34 39q-10 1 -18 7t-12.5 14.5t-4.5 19.5q0 17 12 29t30 12zM122 700h61v-700h-61v700z" />
    <glyph glyph-name="Ldot" unicode="&#x13f;" horiz-adv-x="553" 
d="M106 700h65v-639h338v-61h-403v700zM368.5 272q-17.5 0 -29.5 12t-12 29t12.5 29.5t29.5 12.5t29 -12.5t12 -29.5t-12 -29t-29.5 -12z" />
    <glyph glyph-name="ldot" unicode="&#x140;" horiz-adv-x="381" 
d="M122 0v700h61v-700h-61zM292 272q-17 0 -29.5 12t-12.5 29t12.5 29.5t29.5 12.5t29.5 -12.5t12.5 -29.5t-12.5 -29t-29.5 -12z" />
    <glyph glyph-name="Lslash" unicode="&#x141;" horiz-adv-x="643" 
d="M197 700h65v-305l134 97v-70l-135 -97v-264h339v-61h-403v279l-91 -66v70l91 65v352z" />
    <glyph glyph-name="lslash" unicode="&#x142;" horiz-adv-x="356" 
d="M150 700h61v-311l92 69v-70l-92 -68v-320h-61v276l-93 -67v70l93 67v354z" />
    <glyph glyph-name="Nacute" unicode="&#x143;" horiz-adv-x="746" 
d="M385 900h84l-93 -125h-59zM106 700h72l398 -597v597h64v-700h-72l-398 598v-598h-64v700z" />
    <glyph glyph-name="nacute" unicode="&#x144;" horiz-adv-x="608" 
d="M323 705h83l-92 -126h-59zM148 500v-46q73 55 164 53q111 -1 162.5 -67t52.5 -199v-241h-63v241q0 108 -38.5 158.5t-130.5 49.5q-75 0 -146 -48v-401h-63v500h62z" />
    <glyph glyph-name="Ncommaaccent" unicode="&#x145;" horiz-adv-x="746" 
d="M576 700h64v-700h-72l-398 598v-598h-64v700h72l398 -597v597zM370 -84q12 0 21.5 -6t15 -15.5t5.5 -20.5q0 -29 -19 -54t-63 -25q23 17 34 38q-15 2 -25 13.5t-10 27.5q0 8 3 16t8.5 13.5t13.5 9t16 3.5z" />
    <glyph glyph-name="ncommaaccent" unicode="&#x146;" horiz-adv-x="608" 
d="M148 500v-46q73 55 164 53q111 -1 162.5 -67t52.5 -199v-241h-63v241q0 108 -38.5 158.5t-130.5 49.5q-75 0 -146 -48v-401h-63v500h62zM301 -81q17 0 29 -12.5t12 -29.5q0 -28 -19 -53.5t-63 -25.5q23 17 34 38q-15 3 -25 14.5t-10 26.5q0 9 3 16.5t9 13t13.5 9
t16.5 3.5z" />
    <glyph glyph-name="Ncaron" unicode="&#x147;" horiz-adv-x="746" 
d="M461 900h71l-123 -134h-64l-123 134h71l84 -95zM106 700h72l398 -597v597h64v-700h-72l-398 598v-598h-64v700z" />
    <glyph glyph-name="ncaron" unicode="&#x148;" horiz-adv-x="608" 
d="M379 705h71l-123 -134h-64l-123 134h71l84 -95zM527 0h-63v241q0 108 -38.5 158.5t-130.5 49.5q-75 0 -146 -48v-401h-63v500h62v-46q73 55 164 53q111 -1 162.5 -67t52.5 -199v-241z" />
    <glyph glyph-name="Eng" unicode="&#x14a;" horiz-adv-x="746" 
d="M576 700h64v-582q0 -142 -83 -220t-215 -78h-24v63h25q75 0 132.5 35.5t81.5 98.5l-387 581v-598h-64v700h72l398 -596v596z" />
    <glyph glyph-name="eng" unicode="&#x14b;" horiz-adv-x="608" 
d="M527 241v-269q-1 -70 -42.5 -110t-120.5 -33v55q49 -3 74 19t26 63v275q0 100 -32 149.5t-115 55.5q-77 12 -168 -44v-402h-63v500h61v-46q83 55 170 53q111 -3 160 -70t50 -196z" />
    <glyph glyph-name="Omacron" unicode="&#x14c;" horiz-adv-x="880" 
d="M286 900h306v-52h-306v52zM440.5 709q97.5 0 180.5 -48t131 -130.5t48 -180.5t-48 -180.5t-131 -130.5t-180.5 -48t-180.5 48t-131.5 130.5t-48.5 180.5t48.5 180.5t131.5 130.5t180.5 48zM440 646q-123 0 -209 -86.5t-86 -209.5t86 -209.5t209 -86.5t209.5 86.5
t86.5 209.5t-86.5 209.5t-209.5 86.5z" />
    <glyph glyph-name="omacron" unicode="&#x14d;" horiz-adv-x="662" 
d="M178 700h305v-52h-305v52zM331 508q52 0 100 -20.5t83 -55t55.5 -82.5t20.5 -100q0 -107 -76 -182.5t-183 -75.5t-183 75.5t-76 182.5t76 182.5t183 75.5zM331 446q-82 0 -139 -57t-57 -139t57 -139t139 -57t139 57t57 139t-57 139t-139 57z" />
    <glyph glyph-name="Ohungarumlaut" unicode="&#x150;" horiz-adv-x="880" 
d="M403 900h84l-93 -125h-59zM540 900h84l-93 -125h-59zM440.5 709q97.5 0 180.5 -48t131 -130.5t48 -180.5t-48 -180.5t-131 -130.5t-180.5 -48t-180.5 48t-131.5 130.5t-48.5 180.5t48.5 180.5t131.5 130.5t180.5 48zM440 646q-123 0 -209 -86.5t-86 -209.5t86 -209.5
t209 -86.5t209.5 86.5t86.5 209.5t-86.5 209.5t-209.5 86.5z" />
    <glyph glyph-name="ohungarumlaut" unicode="&#x151;" horiz-adv-x="669" 
d="M303 700h84l-93 -125h-59zM440 700h84l-93 -125h-59zM331 508q52 0 100 -20.5t83 -55t55.5 -82.5t20.5 -100q0 -107 -76 -182.5t-183 -75.5t-183 75.5t-76 182.5t76 182.5t183 75.5zM331 446q-82 0 -139 -57t-57 -139t57 -139t139 -57t139 57t57 139t-57 139t-139 57z
" />
    <glyph glyph-name="OE" unicode="&#x152;" horiz-adv-x="1091" 
d="M619 0v39q-83 -48 -179 -48q-97 0 -180 48t-131.5 130.5t-48.5 180.5t48.5 180.5t131.5 130.5t180 48q96 0 179 -48v39h419v-62h-355v-243h355v-63h-355v-270h355v-62h-419zM619 115v470q-78 61 -179 61q-123 0 -209 -86.5t-86 -209.5t86 -209.5t209 -86.5q101 0 179 61z
" />
    <glyph glyph-name="oe" unicode="&#x153;" horiz-adv-x="1094" 
d="M953 109l44 -45q-66 -72 -208 -72q-77 0 -139.5 41t-90.5 108q-29 -67 -90.5 -108t-137.5 -41q-107 0 -183 75t-76 183q0 107 76 182.5t183 75.5q76 0 137.5 -41.5t89.5 -107.5q19 43 52.5 77t79 53t95.5 19q123 0 196 -84q53 -61 45 -123q-7 -57 -65 -68q-12 -2 -24 -2
h-339q0 -74 56 -125.5t135 -51.5q117 0 164 55zM599 292h313q42 0 46 34q5 39 -38 76q-53 44 -135 45q-36 0 -69 -12.5t-58 -33t-41 -49.5t-18 -60zM331 446q-82 0 -139 -57t-57 -139t57 -139t139 -57t139 57t57 139q0 54 -26 99t-71 71t-99 26z" />
    <glyph glyph-name="Racute" unicode="&#x154;" horiz-adv-x="661" 
d="M286 900h84l-93 -125h-59zM106 700h236q64 0 112 -24t74 -68.5t26 -102.5q0 -79 -47.5 -130.5t-127.5 -62.5l202 -312h-75l-199 309h-137v-309h-64v700zM170 372h171q44 0 77.5 16t52.5 46.5t19 70t-20 70t-53.5 47t-74.5 16.5h-172v-266z" />
    <glyph glyph-name="racute" unicode="&#x155;" horiz-adv-x="488" 
d="M268 700h83l-92 -125h-59zM148 500v-83q34 41 81 65.5t97 24.5q63 1 117 -39l-45 -45q-41 28 -88 27q-87 -1 -161 -89v-361h-63v500h62z" />
    <glyph glyph-name="Rcommaaccent" unicode="&#x156;" horiz-adv-x="661" 
d="M106 700h236q64 0 112 -24t74 -68.5t26 -102.5q0 -53 -21.5 -94t-61 -66.5t-92.5 -32.5l202 -312h-75l-199 309h-137v-309h-64v700zM170 372h171q44 0 77.5 16t52.5 46.5t19 70t-20 70t-53.5 47t-74.5 16.5h-172v-266zM328 -84q17 0 29.5 -12.5t12.5 -29.5
q-1 -29 -20 -54.5t-62 -25.5q23 18 33 39q-7 1 -13.5 4.5t-11 9t-7.5 12.5t-3 15q0 17 12.5 29.5t29.5 12.5z" />
    <glyph glyph-name="rcommaaccent" unicode="&#x157;" horiz-adv-x="492" 
d="M151 500v-83q35 41 81.5 65.5t97.5 24.5q62 1 116 -39l-44 -45q-41 28 -88 27q-87 -1 -161 -89v-361h-63v500h61zM253 -81q18 0 30 -12.5t12 -29.5q0 -29 -19 -54t-63 -25q23 17 34 38q-10 2 -18 7.5t-12.5 14.5t-4.5 19q0 18 12 30t29 12z" />
    <glyph glyph-name="Rcaron" unicode="&#x158;" horiz-adv-x="661" 
d="M378 900h71l-123 -134h-64l-123 134h71l84 -95zM106 700h236q64 0 112 -24t74 -68.5t26 -102.5q0 -79 -47.5 -130.5t-127.5 -62.5l202 -312h-75l-199 309h-137v-309h-64v700zM170 372h171q44 0 77.5 16t52.5 46.5t19 70t-20 70t-53.5 47t-74.5 16.5h-172v-266z" />
    <glyph glyph-name="rcaron" unicode="&#x159;" horiz-adv-x="496" 
d="M362 700h71l-123 -134h-64l-123 134h71l84 -95zM147 500l1 -83q34 41 81 65.5t97 24.5q63 1 117 -39l-45 -45q-41 28 -88 27q-87 -1 -161 -89v-361h-63v500h61z" />
    <glyph glyph-name="Sacute" unicode="&#x15a;" horiz-adv-x="523" 
d="M264 900h84l-93 -125h-59zM288 324l-45 16q-57 15 -97 39t-64 61.5t-24 84.5q0 88 60 136t143 49q47 0 90.5 -15.5t73.5 -43.5l-40 -44q-49 44 -124 41q-57 -2 -96.5 -33.5t-39.5 -87.5q0 -49 34.5 -81t105.5 -53l49 -15q159 -52 159 -196q0 -60 -33 -104.5t-83.5 -65.5
t-109.5 -21q-55 1 -106 21.5t-87 60.5l40 45q59 -66 153 -65q66 0 114.5 35t48.5 94q0 54 -29.5 87t-92.5 55z" />
    <glyph glyph-name="sacute" unicode="&#x15b;" horiz-adv-x="412" 
d="M214 711h84l-93 -125h-59zM50 60l40 40q57 -47 113 -48q40 0 67.5 22.5t28.5 55.5q2 26 -7.5 45t-32.5 34t-61 27q-69 19 -103 52t-34 89q0 58 42.5 94.5t101.5 37.5q68 0 131 -45l-42 -41q-40 24 -83 24q-34 0 -59.5 -17.5t-26.5 -47.5q-2 -32 17 -53.5t68 -35.5
q82 -23 117 -61t35 -101q0 -62 -45 -101t-114 -39q-80 0 -153 69z" />
    <glyph glyph-name="Scedilla" unicode="&#x15e;" horiz-adv-x="523" 
d="M288 324l-45 16q-87 23 -136 69t-49 116q0 60 30.5 103t76 62.5t99.5 19.5q100 -1 161 -59l-40 -44q-48 43 -120 41q-58 -1 -99 -32.5t-41 -88.5q0 -33 15.5 -58.5t46.5 -43.5t78 -32l49 -15q159 -52 159 -196q0 -56 -29 -99t-74 -65t-99 -26v-32h10q34 0 53.5 -20.5
t19.5 -51t-21.5 -52.5t-55.5 -22h-86v41h82q19 0 28 10t9 23q0 9 -3 16.5t-12 13t-22 5.5h-42v70q-110 7 -177 80l40 45q30 -33 72 -49.5t86 -15.5q65 1 111.5 36t46.5 93q0 37 -13.5 64t-40 45t-68.5 33z" />
    <glyph glyph-name="scedilla" unicode="&#x15f;" horiz-adv-x="412" 
d="M50 60l40 40q57 -47 113 -48q40 0 67.5 22.5t28.5 55.5q2 39 -21 64t-80 42q-69 19 -103 52t-34 89q0 58 42.5 94.5t101.5 37.5q68 0 131 -45l-42 -41q-40 24 -83 24q-34 0 -59.5 -17.5t-26.5 -47.5q-2 -32 17 -53.5t68 -35.5q82 -23 117 -61t35 -101q0 -58 -40 -96.5
t-102 -43.5v-27h10q35 0 54 -21t19 -51t-21.5 -52t-55.5 -22h-85v40h81q19 0 28.5 10.5t9.5 23.5q0 14 -9 24.5t-29 10.5h-42v65q-68 10 -130 68z" />
    <glyph glyph-name="Scaron" unicode="&#x160;" horiz-adv-x="523" 
d="M343 900h72l-124 -134h-63l-124 134h72l83 -95zM288 324l-45 16q-57 15 -97 39t-64 61.5t-24 84.5q0 60 30.5 103t75.5 62.5t99 19.5q101 -1 162 -59l-40 -44q-48 43 -122 41q-57 -1 -97.5 -32.5t-40.5 -88.5q0 -49 34.5 -81t105.5 -53l49 -15q159 -52 159 -196
q0 -89 -66.5 -140.5t-158.5 -50.5q-55 1 -106.5 21.5t-87.5 60.5l40 45q60 -66 154 -65q66 0 114 35t48 94q0 54 -29.5 87t-92.5 55z" />
    <glyph glyph-name="scaron" unicode="&#x161;" horiz-adv-x="425" 
d="M295 711h71l-123 -134h-64l-123 134h71l84 -95zM55 60l41 40q56 -47 112 -48q27 0 49 10.5t34.5 28t12.5 39.5q2 26 -7.5 45t-32 34t-61.5 27q-69 19 -102.5 52t-33.5 89q0 58 42.5 94.5t100.5 37.5q68 0 131 -45l-42 -41q-40 24 -83 24q-33 0 -58.5 -17.5t-27.5 -47.5
q-2 -32 17 -53.5t69 -35.5q81 -23 116 -61t35 -101q0 -62 -45 -101t-113 -39q-80 0 -154 69z" />
    <glyph glyph-name="Tcedilla" unicode="&#x162;" horiz-adv-x="578" 
d="M321 640v-640h-12v-40h10q35 0 54.5 -21t19.5 -51.5t-21.5 -52.5t-56.5 -22h-86v42h82q18 0 27.5 9.5t9.5 22.5q0 15 -9 25t-28 10h-43v78h-11v639h-213v61h490v-60h-213z" />
    <glyph glyph-name="tcedilla" unicode="&#x163;" horiz-adv-x="365" 
d="M122 627h63v-127h129v-59h-129v-331q0 -29 22 -45.5t53 -16.5h54v-56h-48q-21 0 -43 3v-22h10q34 0 53.5 -21t19.5 -51t-21.5 -52t-55.5 -22h-86v41h82q19 0 28.5 9.5t9.5 23.5t-9 24.5t-29 10.5h-42v74q-28 14 -44.5 40t-16.5 60v331h-72v59h72v127z" />
    <glyph glyph-name="Tcaron" unicode="&#x164;" horiz-adv-x="578" 
d="M372 900h71l-123 -134h-64l-123 134h71l84 -95zM44 700h490v-60h-213v-640h-64v639h-213v61z" />
    <glyph glyph-name="tcaron" unicode="&#x165;" horiz-adv-x="455" 
d="M379 709q8 0 16 -3t13.5 -9t8.5 -13.5t3 -15.5q0 -29 -19 -54.5t-62 -25.5q23 17 33 39q-10 1 -18 7t-12.5 14.5t-4.5 19.5q0 17 12.5 29t29.5 12zM122 627h63v-127h129v-59h-129v-331q0 -29 22 -45.5t53 -16.5h54v-56h-54q-60 0 -99 32t-39 86v331h-72v59h72v127z" />
    <glyph glyph-name="Tbar" unicode="&#x166;" horiz-adv-x="578" 
d="M44 700h490v-60h-213v-233h121v-52h-121v-355h-64v355h-121v52h121v232h-213v61z" />
    <glyph glyph-name="tbar" unicode="&#x167;" horiz-adv-x="364" 
d="M314 441h-129v-126h129v-52h-129v-153q0 -29 22 -45.5t53 -16.5h54v-56h-54q-60 0 -99 32t-39 86v153h-72v52h72v126h-72v59h72v127h63v-127h129v-59z" />
    <glyph glyph-name="Umacron" unicode="&#x16a;" 
d="M228 863h305v-52h-305v52zM591 265v435h65v-442q0 -110 -79 -188.5t-196 -78.5t-196 78.5t-79 188.5v442h66v-435q0 -44 16.5 -83t44.5 -67t66.5 -44.5t81.5 -16.5q87 0 148.5 61.5t61.5 149.5z" />
    <glyph glyph-name="umacron" unicode="&#x16b;" horiz-adv-x="617" 
d="M153 711h306v-52h-306v52zM467 500h64v-500h-62v61q-77 -70 -179 -69q-108 2 -158 68t-50 199v241h63v-241q0 -108 36.5 -158.5t125.5 -49.5q86 0 160 64v385z" />
    <glyph glyph-name="Uring" unicode="&#x16e;" 
d="M376 953q42 0 72 -29.5t30 -71.5q0 -43 -30 -72.5t-72 -29.5q-43 0 -72 29.5t-29 72.5q0 21 8 39.5t21 32t32 21.5t40 8zM376 903q-21 0 -36 -15t-15 -36q0 -22 14.5 -37t36.5 -15q21 0 36 15t15 37q0 21 -15 36t-36 15zM591 700h65v-442q0 -110 -79 -188.5t-196 -78.5
t-196 78.5t-79 188.5v442h66v-435q0 -58 27.5 -106.5t76 -76.5t105.5 -28q87 0 148.5 61.5t61.5 149.5v435z" />
    <glyph glyph-name="uring" unicode="&#x16f;" horiz-adv-x="617" 
d="M311 797q42 0 72 -30t30 -71q0 -43 -29.5 -73t-72.5 -30q-42 0 -71.5 30t-29.5 73q0 41 29.5 71t71.5 30zM311 746q-21 0 -35.5 -15t-14.5 -35q0 -15 6.5 -26.5t18 -18.5t25.5 -7t26 6.5t19 18.5t7 27q0 20 -15.5 35t-36.5 15zM467 500h64v-500h-62v61q-77 -70 -179 -69
q-108 2 -158 68t-50 199v241h63v-241q0 -108 36.5 -158.5t125.5 -49.5q86 0 160 64v385z" />
    <glyph glyph-name="Uhungarumlaut" unicode="&#x170;" 
d="M346 919h83l-93 -126h-59zM483 919h83l-93 -126h-59zM591 700h65v-442q0 -110 -79 -188.5t-196 -78.5t-196 78.5t-79 188.5v442h66v-435q0 -44 16.5 -83t44.5 -67t66.5 -44.5t81.5 -16.5q87 0 148.5 61.5t61.5 149.5v435z" />
    <glyph glyph-name="uhungarumlaut" unicode="&#x171;" horiz-adv-x="631" 
d="M253 711h83l-93 -125h-59zM390 711h83l-93 -125h-59zM467 500h64v-500h-62v61q-77 -70 -179 -69q-108 2 -158 68t-50 199v241h63v-241q0 -108 36.5 -158.5t125.5 -49.5q86 0 160 64v385z" />
    <glyph glyph-name="Uogonek" unicode="&#x172;" 
d="M591 700h65v-442q0 -85 -49 -153.5t-130 -97.5q-46 -31 -47 -71q-1 -44 43 -44h24v-42h-30q-35 0 -58 20.5t-23 54.5q0 41 31 68q-18 -2 -36 -2q-117 0 -196 78.5t-79 188.5v442h66v-435q0 -44 16.5 -83t44.5 -67t66.5 -44.5t81.5 -16.5q87 0 148.5 61.5t61.5 149.5v435z
" />
    <glyph glyph-name="uogonek" unicode="&#x173;" horiz-adv-x="617" 
d="M531 0h-21q-58 -33 -59 -79q-1 -44 43 -44h24v-42h-30q-36 0 -58.5 20.5t-22.5 54.5q0 54 62 90v61q-77 -70 -179 -69q-108 2 -158 68t-50 199v241h63v-241q0 -108 36.5 -158.5t125.5 -49.5q86 0 160 64v385h64v-500z" />
    <glyph glyph-name="Wcircumflex" unicode="&#x174;" horiz-adv-x="1067" 
d="M496 900h64l123 -134h-71l-84 95l-84 -95h-71zM956 700h67l-233 -700h-72l-184 599l-186 -599h-70l-234 700h67l203 -598l183 598h74l183 -598z" />
    <glyph glyph-name="wcircumflex" unicode="&#x175;" horiz-adv-x="830" 
d="M384 700h64l123 -134h-71l-84 95l-84 -95h-71zM784 500l-168 -500h-65l-136 409l-136 -409h-64l-169 500h61l140 -408l136 408h65l136 -408l139 408h61z" />
    <glyph glyph-name="Ycircumflex" unicode="&#x176;" horiz-adv-x="670" 
d="M303 900h64l123 -134h-71l-84 95l-84 -95h-71zM556 700h70l-259 -407v-293h-64v293l-259 407h71l220 -346z" />
    <glyph glyph-name="ycircumflex" unicode="&#x177;" horiz-adv-x="579" 
d="M251 700h64l123 -134h-71l-84 95l-84 -95h-71zM445 500h63v-455q-3 -114 -56 -165.5t-169 -49.5q-108 1 -186 45l8 50q77 -40 178 -39q85 0 121.5 31.5t42.5 112.5v23q-31 -23 -72.5 -38t-84.5 -15q-113 -1 -167.5 65t-54.5 202v233h63v-233q0 -72 15.5 -116.5t53 -68
t99.5 -23.5q74 0 146 48v393z" />
    <glyph glyph-name="Ydieresis" unicode="&#x178;" horiz-adv-x="670" 
d="M230 823q-11 0 -20.5 5.5t-15 15t-5.5 20.5q0 17 12 29.5t29 12.5q18 0 30 -12.5t12 -29.5t-12 -29t-30 -12zM440 823q-18 0 -30 12t-12 29t12 29.5t30 12.5q17 0 29 -12.5t12 -29.5t-12 -29t-29 -12zM556 700h70l-259 -407v-293h-64v293l-259 407h71l220 -346z" />
    <glyph glyph-name="Zacute" unicode="&#x179;" horiz-adv-x="576" 
d="M294 900h84l-93 -125h-59zM66 700h454v-61l-394 -579h397v-60h-470v61l394 579h-381v60z" />
    <glyph glyph-name="zacute" unicode="&#x17a;" horiz-adv-x="446" 
d="M226 700h83l-92 -125h-60zM128 59h268v-59h-346v55l264 385h-251v60h329v-56z" />
    <glyph glyph-name="Zdotaccent" unicode="&#x17b;" horiz-adv-x="576" 
d="M283 823q-17 0 -29.5 12t-12.5 29t12.5 29.5t29.5 12.5t29.5 -12.5t12.5 -29.5t-12.5 -29t-29.5 -12zM66 700h454v-61l-394 -579h397v-60h-470v61l394 579h-381v60z" />
    <glyph glyph-name="zdotaccent" unicode="&#x17c;" horiz-adv-x="446" 
d="M220.5 623q-17.5 0 -29.5 12t-12 29t12 29.5t29 12.5t29.5 -12.5t12.5 -29.5t-12 -29t-29.5 -12zM128 59h268v-59h-346v55l264 385h-251v60h329v-56z" />
    <glyph glyph-name="Zcaron" unicode="&#x17d;" horiz-adv-x="576" 
d="M367 900h71l-123 -134h-64l-124 134h72l84 -95zM66 700h454v-61l-394 -579h397v-60h-470v61l394 579h-381v60z" />
    <glyph glyph-name="zcaron" unicode="&#x17e;" horiz-adv-x="456" 
d="M310 700h72l-124 -134h-64l-123 134h72l83 -95zM132 59h268v-59h-347v55l264 385h-250v60h328v-56z" />
    <glyph glyph-name="florin" unicode="&#x192;" horiz-adv-x="362" 
d="M291 750h22l-5 -56h-11q-46 0 -65 -24.5t-24 -90.5l-9 -79h91l-6 -62h-90l-54 -601h-64l55 601h-81l5 62h82l7 77q8 89 41 131t106 42z" />
    <glyph glyph-name="Acaron" unicode="&#x1cd;" 
d="M462 900h71l-123 -134h-64l-124 134h72l84 -95zM341 700h72l297 -700h-67l-95 218h-342l-94 -218h-68zM522 282l-145 342l-145 -342h290z" />
    <glyph glyph-name="acaron" unicode="&#x1ce;" horiz-adv-x="553" 
d="M351 711h71l-123 -134h-64l-123 134h71l84 -95zM110 408l-25 49q68 52 190 52q102 0 157.5 -57.5t55.5 -158.5v-293h-56v53q-26 -27 -76 -44t-99 -17q-60 0 -103.5 20t-67.5 60t-24 97q0 78 54 124.5t153 46.5q86 -1 156 -39q-1 48 -19.5 81t-53 50.5t-83.5 17.5
q-103 0 -159 -42zM425 107v138q-61 36 -156 36q-72 0 -108 -30.5t-36 -83.5q0 -55 34.5 -84t103.5 -29q38 0 85 14.5t77 38.5z" />
    <glyph glyph-name="Icaron" unicode="&#x1cf;" horiz-adv-x="277" 
d="M223 900h71l-123 -134h-64l-123 134h71l84 -95zM107 0v700h64v-700h-64z" />
    <glyph glyph-name="icaron" unicode="&#x1d0;" horiz-adv-x="488" 
d="M330 700h72l-124 -134h-64l-123 134h71l84 -95zM216 500h61v-500h-61v500z" />
    <glyph glyph-name="Ocaron" unicode="&#x1d1;" horiz-adv-x="880" 
d="M524 900h71l-123 -134h-64l-123 134h71l84 -95zM440.5 709q97.5 0 180.5 -48t131 -130.5t48 -180.5t-48 -180.5t-131 -130.5t-180.5 -48t-180.5 48t-131.5 130.5t-48.5 180.5t48.5 180.5t131.5 130.5t180.5 48zM440 646q-123 0 -209 -86.5t-86 -209.5t86 -209.5
t209 -86.5t209.5 86.5t86.5 209.5t-86.5 209.5t-209.5 86.5z" />
    <glyph glyph-name="ocaron" unicode="&#x1d2;" horiz-adv-x="662" 
d="M414 700h71l-123 -134h-64l-123 134h71l84 -95zM331 508q52 0 100 -20.5t83 -55t55.5 -82.5t20.5 -100q0 -107 -76 -182.5t-183 -75.5t-183 75.5t-76 182.5t76 182.5t183 75.5zM331 446q-82 0 -139 -57t-57 -139t57 -139t139 -57t139 57t57 139t-57 139t-139 57z" />
    <glyph glyph-name="Ucaron" unicode="&#x1d3;" 
d="M464 900h71l-123 -134h-64l-123 134h71l84 -95zM591 265v435h65v-442q0 -110 -79 -188.5t-196 -78.5t-196 78.5t-79 188.5v442h66v-435q0 -44 16.5 -83t44.5 -67t66.5 -44.5t81.5 -16.5q87 0 148.5 61.5t61.5 149.5z" />
    <glyph glyph-name="ucaron" unicode="&#x1d4;" horiz-adv-x="617" 
d="M389 711h71l-123 -134h-64l-123 134h71l84 -95zM467 500h64v-500h-62v61q-77 -70 -179 -69q-108 2 -158 68t-50 199v241h63v-241q0 -108 36.5 -158.5t125.5 -49.5q86 0 160 64v385z" />
    <glyph glyph-name="Udieresismacron" unicode="&#x1d5;" 
d="M227 937h306v-52h-306v52zM275 750q-11 0 -20.5 5.5t-15 15t-5.5 20.5q0 18 12 30t29 12q18 0 30 -12.5t12 -29.5t-12 -29t-30 -12zM485 750q-18 0 -30 12t-12 29.5t12 29.5t30 12q17 0 29 -12.5t12 -29.5t-12 -29t-29 -12zM591 265v435h65v-442q0 -110 -79 -188.5
t-196 -78.5t-196 78.5t-79 188.5v442h66v-435q0 -58 27.5 -106.5t76 -76.5t105.5 -28q87 0 148.5 61.5t61.5 149.5z" />
    <glyph glyph-name="udieresismacron" unicode="&#x1d6;" horiz-adv-x="617" 
d="M154 776h305v-52h-305v52zM201 659q17 0 29.5 -12.5t12.5 -29.5q0 -11 -5.5 -20.5t-15 -15.5t-21 -6t-21 6t-15 15.5t-5.5 20.5q0 17 12 29.5t29 12.5zM411 659q17 0 29 -12.5t12 -29.5t-12 -29.5t-29 -12.5q-18 0 -30 12.5t-12 29.5t12 29.5t30 12.5zM467 500h64v-500
h-62v61q-77 -70 -179 -69q-108 2 -158 68t-50 199v241h63v-241q0 -108 36.5 -158.5t125.5 -49.5q86 0 160 64v385z" />
    <glyph glyph-name="Udieresisacute" unicode="&#x1d7;" 
d="M403 985h84l-93 -125h-59zM275 750q-11 0 -20.5 5.5t-15 15t-5.5 20.5q0 18 12 30t29 12q18 0 30 -12.5t12 -29.5t-12 -29t-30 -12zM485 750q-18 0 -30 12t-12 29.5t12 29.5t30 12q17 0 29 -12.5t12 -29.5t-12 -29t-29 -12zM591 265v435h65v-442q0 -110 -79 -188.5
t-196 -78.5t-196 78.5t-79 188.5v442h66v-435q0 -44 16.5 -83t44.5 -67t66.5 -44.5t81.5 -16.5q87 0 148.5 61.5t61.5 149.5z" />
    <glyph glyph-name="udieresisacute" unicode="&#x1d8;" horiz-adv-x="617" 
d="M337 816h83l-92 -126h-59zM201 659q17 0 29.5 -12t12.5 -29q0 -12 -6 -21.5t-15.5 -15t-20.5 -5.5t-21 5.5t-15.5 15t-5.5 21.5q0 17 12.5 29t29.5 12zM410 659q17 0 29.5 -12t12.5 -29.5t-12.5 -29.5t-29.5 -12t-29 12t-12 29.5t12 29.5t29 12zM467 500h64v-500h-62v61
q-77 -70 -179 -69q-108 2 -158 68t-50 199v241h63v-241q0 -108 36.5 -158.5t125.5 -49.5q86 0 160 64v385z" />
    <glyph glyph-name="Udieresiscaron" unicode="&#x1d9;" 
d="M465 991h71l-123 -134h-64l-123 134h71l84 -95zM276 750q-12 0 -21.5 5.5t-15 15t-5.5 20.5q0 17 12.5 29.5t29.5 12.5t29.5 -12.5t12.5 -29.5t-12.5 -29t-29.5 -12zM485 750q-17 0 -29 12t-12 29t12 29.5t29 12.5t29.5 -12.5t12.5 -29.5t-12.5 -29t-29.5 -12zM591 265
v435h65v-442q0 -110 -79 -188.5t-196 -78.5t-196 78.5t-79 188.5v442h66v-435q0 -88 61 -149.5t148 -61.5t148.5 61.5t61.5 149.5z" />
    <glyph glyph-name="udieresiscaron" unicode="&#x1da;" horiz-adv-x="617" 
d="M389 825h71l-123 -135h-64l-123 135h71l84 -95zM200 659q17 0 29 -12t12 -29q0 -12 -5.5 -21.5t-15 -15t-21 -5.5t-21 5.5t-15 15t-5.5 21.5q0 17 12 29t30 12zM409 659q17 0 29.5 -12t12.5 -29.5t-12.5 -29.5t-29.5 -12t-29.5 12t-12.5 29.5t12.5 29.5t29.5 12zM467 500
h64v-500h-62v61q-77 -70 -179 -69q-108 2 -158 68t-50 199v241h63v-241q0 -108 36.5 -158.5t125.5 -49.5q86 0 160 64v385z" />
    <glyph glyph-name="Udieresisgrave" unicode="&#x1db;" 
d="M274 985h84l68 -125h-59zM275 750q-11 0 -20.5 5.5t-15 15t-5.5 20.5q0 18 12 30t29 12q18 0 30 -12.5t12 -29.5t-12 -29t-30 -12zM485 750q-18 0 -30 12t-12 29.5t12 29.5t30 12q17 0 29 -12.5t12 -29.5t-12 -29t-29 -12zM591 265v435h65v-442q0 -110 -79 -188.5
t-196 -78.5t-196 78.5t-79 188.5v442h66v-435q0 -44 16.5 -83t44.5 -67t66.5 -44.5t81.5 -16.5q87 0 148.5 61.5t61.5 149.5z" />
    <glyph glyph-name="udieresisgrave" unicode="&#x1dc;" horiz-adv-x="617" 
d="M197 816h83l68 -126h-59zM201 659q18 0 30 -12.5t12 -29.5q0 -11 -5.5 -20.5t-15 -15.5t-21 -6t-21 6t-15 15.5t-5.5 20.5q0 17 12 29.5t29 12.5zM411 659q17 0 29 -12.5t12 -29.5t-12 -29.5t-29 -12.5q-18 0 -30 12.5t-12 29.5t12 29.5t30 12.5zM467 500h64v-500h-62v61
q-77 -70 -179 -69q-108 2 -158 68t-50 199v241h63v-241q0 -108 36.5 -158.5t125.5 -49.5q86 0 160 64v385z" />
    <glyph glyph-name="Scommaaccent" unicode="&#x218;" horiz-adv-x="523" 
d="M288 324l-45 16q-87 23 -136 69t-49 116q0 59 29.5 102t74 62.5t97.5 20.5q32 0 61.5 -6.5t57 -20t47.5 -32.5l-40 -44q-49 44 -124 41q-57 -2 -96.5 -33.5t-39.5 -87.5q0 -49 34.5 -81.5t105.5 -52.5l49 -15q159 -52 159 -196q0 -89 -66 -140t-158 -51q-55 0 -107 21
t-88 61l40 45q60 -66 154 -65q66 0 114 35t48 94q0 37 -13.5 64t-40 45t-68.5 33zM252 -84q17 0 29.5 -12.5t12.5 -29.5q-1 -29 -20 -54t-62 -25q23 17 34 38q-10 2 -18 7.5t-13 14.5t-5 19q0 17 12.5 29.5t29.5 12.5z" />
    <glyph glyph-name="scommaaccent" unicode="&#x219;" horiz-adv-x="412" 
d="M50 60l40 40q57 -47 113 -48q26 0 48 10.5t35 28t13 39.5q2 26 -7.5 45t-32.5 34t-61 27q-46 12 -75.5 30t-45.5 45.5t-16 65.5q0 58 42.5 94.5t101.5 37.5q68 0 131 -45l-42 -41q-40 24 -83 24q-34 0 -59.5 -17.5t-26.5 -47.5q-2 -32 17 -53.5t68 -35.5q82 -23 117 -61
t35 -101q0 -62 -45 -101t-114 -39q-80 0 -153 69zM205 -81q17 0 29 -12.5t12 -29.5q0 -29 -19 -54t-63 -25q23 17 34 38q-15 3 -25 14.5t-10 26.5q0 18 12 30t30 12z" />
    <glyph glyph-name="uni021A" unicode="&#x21a;" horiz-adv-x="578" 
d="M44 700h490v-60h-213v-640h-64v639h-213v61zM290 -84q17 0 29.5 -12.5t12.5 -29.5q-1 -29 -20 -54t-62 -25q23 17 33 38q-15 3 -25 14.5t-10 26.5q0 17 12.5 29.5t29.5 12.5z" />
    <glyph glyph-name="uni021B" unicode="&#x21b;" horiz-adv-x="364" 
d="M122 627h63v-127h129v-59h-129v-331q0 -29 22 -45.5t53 -16.5h54v-56h-54q-60 0 -99 32t-39 86v331h-72v59h72v127zM217 -81q17 0 29 -12.5t12 -29.5q0 -29 -19 -54t-62 -25q23 17 33 38q-15 3 -25 14.5t-10 26.5q0 18 12 30t30 12z" />
    <glyph glyph-name="circumflex" unicode="&#x2c6;" horiz-adv-x="410" 
d="M173 700h64l123 -134h-71l-84 95l-84 -95h-71z" />
    <glyph glyph-name="caron" unicode="&#x2c7;" horiz-adv-x="410" 
d="M289 700h71l-123 -134h-64l-123 134h71l84 -95z" />
    <glyph glyph-name="breve" unicode="&#x2d8;" horiz-adv-x="367" 
d="M263 700h55q-7 -50 -45 -83.5t-89 -33.5q-52 0 -90 33.5t-44 83.5h55q6 -30 27.5 -48t51.5 -18q29 0 51 18t28 48z" />
    <glyph glyph-name="dotaccent" unicode="&#x2d9;" horiz-adv-x="183" 
d="M92 623q-12 0 -21.5 5.5t-15 15t-5.5 20.5q0 17 12.5 29.5t29.5 12.5t29 -12.5t12 -29.5t-12 -29t-29 -12z" />
    <glyph glyph-name="ring" unicode="&#x2da;" horiz-adv-x="304" 
d="M151 700q21 0 40 -8t32.5 -21.5t22 -32.5t8.5 -39q0 -43 -30 -72.5t-72.5 -29.5t-72 29.5t-29.5 72.5q0 41 29.5 71t71.5 30zM152 650q-22 0 -36.5 -15t-14.5 -36q0 -11 4 -20.5t10.5 -16.5t16 -11t20.5 -4q14 0 25.5 7t18.5 19t7 26q0 21 -15 36t-36 15z" />
    <glyph glyph-name="ogonek" unicode="&#x2db;" horiz-adv-x="266" 
d="M126 1h40q-62 -34 -63 -81q-1 -45 43 -45h23v-41h-29q-36 0 -59 20t-23 54.5t18 55t50 37.5z" />
    <glyph glyph-name="tilde" unicode="&#x2dc;" horiz-adv-x="373" 
d="M287 655l36 36v-62l-23 -22q-36 -37 -95 -2l-45 27q-44 26 -68 2l-42 -42v61l29 29q34 34 92 0l45 -26q45 -27 71 -1z" />
    <glyph glyph-name="hungarumlaut" unicode="&#x2dd;" horiz-adv-x="386" 
d="M118 700h84l-93 -125h-59zM252 700h84l-93 -125h-59z" />
    <glyph glyph-name="commaaccentcomb" unicode="&#x326;" horiz-adv-x="0" 
d="M93 -71q17 0 29 -12t12 -29q0 -29 -19 -54.5t-62 -25.5q22 17 33 39q-10 1 -18 7t-12.5 14.5t-4.5 19.5t5.5 20.5t15 15t21.5 5.5z" />
    <glyph glyph-name="Delta" unicode="&#x394;" horiz-adv-x="787" 
d="M359 700h69l315 -700h-699zM650 63l-256 570l-257 -570h513z" />
    <glyph glyph-name="Omega" unicode="&#x3a9;" horiz-adv-x="895" 
d="M69 56h193q-79 42 -127 120.5t-48 173.5q0 98 48.5 180.5t131 130.5t180.5 48t180.5 -48t131 -130.5t48.5 -180.5q0 -94 -47.5 -173t-126.5 -121h193v-62h-332v64q109 17 179 99t70 193q0 123 -86.5 209.5t-209.5 86.5q-81 0 -149 -39.5t-107.5 -107.5t-39.5 -149
q0 -110 71.5 -193t178.5 -100v-64h-332v63z" />
    <glyph glyph-name="mu" unicode="&#x3bc;" horiz-adv-x="619" 
d="M471 500h63v-500h-61v61q-77 -70 -180 -69q-108 1 -147 76v-231h-61v663h63v-241q0 -108 37 -158.5t126 -49.5q86 0 160 64v385z" />
    <glyph glyph-name="pi" unicode="&#x3c0;" horiz-adv-x="682" 
d="M495 439l22 -235q6 -68 39 -110t80 -42v-57q-80 0 -126.5 54.5t-56.5 154.5l-22 235h-190v-439h-63v439h-107v61h528v-61h-104z" />
    <glyph glyph-name="afii10017" unicode="&#x410;" 
d="M341 700h72l297 -700h-68l-94 218h-342l-94 -218h-68zM522 282l-145 342l-145 -342h290z" />
    <glyph glyph-name="afii10018" unicode="&#x411;" horiz-adv-x="617" 
d="M170 385h186q95 0 151.5 -54t56.5 -141q0 -88 -57.5 -142t-150.5 -54h-250v706h412v-62h-348v-253zM171 57h184q61 0 103 37t42 95q0 59 -40.5 96t-104.5 37h-184v-265z" />
    <glyph glyph-name="afii10019" unicode="&#x412;" horiz-adv-x="645" 
d="M106 705h251q86 0 144 -51.5t58 -133.5q0 -53 -25.5 -93t-70.5 -62q58 -20 93.5 -67t35.5 -110q0 -84 -59.5 -139t-145.5 -55h-281v711zM171 390l173 -1q64 0 106 34t42 93t-42 93t-106 34h-173v-253zM172 57h204q64 0 106.5 37t42.5 98q0 39 -20 70.5t-54 48t-75 16.5
h-204v-270z" />
    <glyph glyph-name="afii10020" unicode="&#x413;" horiz-adv-x="574" 
d="M530 700v-62h-359v-638h-65v700h424z" />
    <glyph glyph-name="afii10021" unicode="&#x414;" horiz-adv-x="817" 
d="M268 700h400v-639h66v-185h-61v124h-568v-124h-61v185h36q63 5 103 63t49 160zM604 61v577h-275l-32 -354q-14 -159 -92 -223h399z" />
    <glyph glyph-name="afii10022" unicode="&#x415;" horiz-adv-x="578" 
d="M106 700h416v-60h-352v-246h348v-60h-348v-274h355v-60h-419v700z" />
    <glyph glyph-name="afii10024" unicode="&#x416;" horiz-adv-x="1002" 
d="M682 431l277 -431h-76l-244 381l-106 -120v-261h-64v261l-105 120l-244 -381h-76l276 431l-235 269h76l308 -353v353h64v-353l308 353h77z" />
    <glyph glyph-name="afii10025" unicode="&#x417;" horiz-adv-x="556" 
d="M96 584l-45 45q99 79 225 79q89 0 148.5 -48t59.5 -131q0 -61 -35.5 -105.5t-92.5 -62.5q61 -18 99 -67t38 -118q0 -87 -61.5 -136.5t-156.5 -49.5q-126 0 -225 79l45 45q74 -61 174 -61q71 -1 115 35t44 99q0 64 -45.5 102.5t-127.5 39.5h-80v59h70q83 1 128.5 35
t45.5 95q0 60 -42.5 93.5t-106.5 33.5q-101 0 -174 -61z" />
    <glyph glyph-name="afii10026" unicode="&#x418;" horiz-adv-x="746" 
d="M568 700h72v-700h-64v598l-398 -598h-72v700h64v-597z" />
    <glyph glyph-name="afii10027" unicode="&#x419;" horiz-adv-x="746" 
d="M239 900h63q6 -24 25.5 -39.5t45 -15.5t45.5 15.5t26 39.5h62q-6 -50 -44 -83.5t-89.5 -33.5t-89.5 33.5t-44 83.5zM170 103l398 597h72v-700h-64v598l-398 -598h-72v700h64v-597z" />
    <glyph glyph-name="afii10028" unicode="&#x41a;" horiz-adv-x="639" 
d="M478 700h76l-235 -269l276 -431h-76l-243 381l-106 -120v-261h-64v700h64v-353z" />
    <glyph glyph-name="afii10029" unicode="&#x41b;" horiz-adv-x="748" 
d="M253 700h393v-700h-64v638h-275l-32 -354q-11 -135 -74.5 -213.5t-155.5 -78.5v63q32 0 60.5 15.5t50 44.5t36 72t18.5 97l37 416h6z" />
    <glyph glyph-name="afii10030" unicode="&#x41c;" horiz-adv-x="904" 
d="M726 700h72v-700h-64v611l-282 -353l-282 354v-612h-64v700h72l274 -348z" />
    <glyph glyph-name="afii10031" unicode="&#x41d;" horiz-adv-x="726" 
d="M556 700h64v-700h-64v335h-386v-335h-64v700h64v-303h386v303z" />
    <glyph glyph-name="afii10032" unicode="&#x41e;" horiz-adv-x="880" 
d="M440.5 709q97.5 0 180.5 -48t131 -130.5t48 -180.5t-48 -180.5t-131 -130.5t-180.5 -48t-180.5 48t-131.5 130.5t-48.5 180.5t48.5 180.5t131.5 130.5t180.5 48zM440 646q-123 0 -209 -86.5t-86 -209.5t86 -209.5t209 -86.5t209.5 86.5t86.5 209.5t-86.5 209.5
t-209.5 86.5z" />
    <glyph glyph-name="afii10033" unicode="&#x41f;" horiz-adv-x="726" 
d="M106 700h514v-700h-64v638h-386v-638h-64v700z" />
    <glyph glyph-name="afii10034" unicode="&#x420;" horiz-adv-x="623" 
d="M107 705h231q98 1 157.5 -55.5t59.5 -150.5q0 -93 -59 -150t-157 -57h-169v-292h-63v705zM171 355h164q70 0 113 39.5t43 104.5q0 43 -20.5 76t-56 50t-78.5 17h-165v-287z" />
    <glyph glyph-name="afii10035" unicode="&#x421;" horiz-adv-x="730" 
d="M631 113l46 -43q-100 -79 -225 -79q-97 0 -180 48t-131.5 130.5t-48.5 180.5t48.5 180.5t131.5 130.5t180 48q127 0 225 -79l-45 -44q-79 60 -180 60q-80 0 -148 -39.5t-107.5 -107.5t-39.5 -149q0 -123 86 -210t209 -87q100 0 179 60z" />
    <glyph glyph-name="afii10036" unicode="&#x422;" horiz-adv-x="578" 
d="M534 700v-62h-213v-638h-64v637h-213v63h490z" />
    <glyph glyph-name="afii10037" unicode="&#x423;" horiz-adv-x="670" 
d="M556 700h70l-259 -407v-293h-64v293l-259 407h71l220 -346z" />
    <glyph glyph-name="afii10038" unicode="&#x424;" horiz-adv-x="886" 
d="M411 700h64v-77h134q94 0 151 -52.5t57 -140.5q0 -86 -56.5 -139t-150.5 -53h-135v-238h-64v238h-135q-94 0 -150.5 53t-56.5 139q0 88 57 140.5t151 52.5h134v77zM411 301v259h-133q-62 0 -103.5 -36t-41.5 -94t40.5 -93.5t104.5 -35.5h133zM475 301h133
q64 0 104.5 35.5t40.5 93.5q0 39 -19.5 68.5t-52 45.5t-73.5 16h-133v-259z" />
    <glyph glyph-name="afii10039" unicode="&#x425;" horiz-adv-x="649" 
d="M284 366l-220 334h72l190 -289l187 289h72l-219 -336l239 -364h-72l-208 318l-210 -318h-71z" />
    <glyph glyph-name="afii10040" unicode="&#x426;" horiz-adv-x="811" 
d="M620 62h111v-180h-62v118h-563v700h64v-637h386v637h64v-638z" />
    <glyph glyph-name="afii10041" unicode="&#x427;" horiz-adv-x="681" 
d="M511 700h64v-700h-62v252q-32 -26 -86 -43t-109 -17q-142 0 -203.5 68.5t-61.5 196.5v243h65v-236q0 -107 45 -158t161 -51q30 0 65.5 7.5t68.5 21.5t53 31v385z" />
    <glyph glyph-name="afii10042" unicode="&#x428;" horiz-adv-x="1118" 
d="M948 700h64v-700h-906v700h64v-637h357v637h64v-637h357v637z" />
    <glyph glyph-name="afii10043" unicode="&#x429;" horiz-adv-x="1202" 
d="M948 700h64v-637h111v-181h-63v118h-954v700h64v-637h357v637h64v-637h357v637z" />
    <glyph glyph-name="afii10044" unicode="&#x42a;" horiz-adv-x="751" 
d="M277 385h186q63 0 110 -25.5t72.5 -70t25.5 -101.5q0 -88 -57.5 -143t-150.5 -54h-250v646h-114v63h178v-315zM277 54l185 -1q61 0 103 38t42 96q0 59 -41 97t-104 38h-185v-268z" />
    <glyph glyph-name="afii10045" unicode="&#x42b;" horiz-adv-x="853" 
d="M170 385h186q63 0 110 -25.5t72.5 -70t25.5 -101.5q0 -89 -57.5 -143.5t-150.5 -53.5h-249v709h63v-315zM683 700h64v-700h-64v700zM170 53h185q61 0 103 38t42 96q0 59 -41 97t-104 38h-185v-269z" />
    <glyph glyph-name="afii10046" unicode="&#x42c;" horiz-adv-x="643" 
d="M170 385h186q63 0 110 -25.5t72.5 -70t25.5 -101.5q0 -89 -57.5 -143.5t-150.5 -53.5h-249v709h63v-315zM170 53h185q61 0 103 38t42 96q0 59 -41 97t-104 38h-185v-269z" />
    <glyph glyph-name="afii10047" unicode="&#x42d;" horiz-adv-x="730" 
d="M98 586l-45 44q98 79 225 79q97 0 180 -48t131.5 -130.5t48.5 -180.5t-48.5 -180.5t-131.5 -130.5t-180 -48q-125 0 -224 78l53 39q76 -54 171 -54q115 0 198.5 76.5t93.5 189.5h-346v63h345q-10 111 -93.5 187t-197.5 76q-101 0 -180 -60z" />
    <glyph glyph-name="afii10048" unicode="&#x42e;" horiz-adv-x="1130" 
d="M170 382h149q8 91 57.5 166t129 118t171.5 43q98 0 180.5 -48t131 -130.5t48.5 -180.5t-48.5 -180.5t-131 -130.5t-180.5 -48q-141 0 -244 94.5t-114 233.5h-149v-319h-64v700h64v-318zM677 54q81 0 149 39.5t107.5 107.5t39.5 149q0 123 -86.5 209.5t-209.5 86.5
q-81 0 -149 -39.5t-107.5 -107.5t-39.5 -149q0 -123 86.5 -209.5t209.5 -86.5z" />
    <glyph glyph-name="afii10049" unicode="&#x42f;" horiz-adv-x="664" 
d="M80 0l205 317q-52 7 -91.5 32.5t-61.5 66.5t-22 94q0 88 58 141.5t154 53.5h236v-705h-63v314h-138l-202 -314h-75zM494 643h-172q-41 0 -74.5 -16.5t-53.5 -47t-20 -69.5q0 -60 41.5 -97t107.5 -37h171v267z" />
    <glyph glyph-name="afii10065" unicode="&#x430;" horiz-adv-x="553" 
d="M110 408l-25 49q68 52 190 52q102 0 157.5 -57.5t55.5 -158.5v-293h-56v53q-26 -27 -76 -44t-99 -17q-60 0 -103.5 20t-67.5 60t-24 97q0 78 54 124.5t153 46.5q86 -1 156 -39q-2 73 -42 111t-114 38q-103 0 -159 -42zM425 107v138q-61 36 -156 36q-72 0 -108 -30.5
t-36 -83.5q0 -55 34.5 -84t103.5 -29q38 0 85 14.5t77 38.5z" />
    <glyph glyph-name="afii10066" unicode="&#x431;" horiz-adv-x="662" 
d="M510 771h64q0 -58 -41 -91t-108 -33h-97q-79 1 -133 -50.5t-56 -136.5v-64q25 49 77.5 80.5t114.5 31.5q107 0 183 -75.5t76 -182.5t-76 -182.5t-183 -75.5t-182.5 75t-76.5 182v175q0 54 13.5 100t36.5 78.5t54.5 55.5t68 34t76.5 11h104q17 0 33 5t27.5 13.5t18 21.5
t6.5 28zM331 446q-81 0 -138 -58t-57 -139t57 -138t138.5 -57t138.5 57t57 139t-57 139t-139 57z" />
    <glyph glyph-name="afii10067" unicode="&#x432;" horiz-adv-x="513" 
d="M86 508h176q67 0 109.5 -38t42.5 -99q0 -37 -16.5 -66t-46.5 -46q38 -15 61 -50t23 -78q0 -62 -44.5 -100.5t-114.5 -38.5h-190v516zM149 287h109q42 0 67.5 21t25.5 60q0 37 -26 58t-67 21h-109v-160zM149 53h122q46 0 73 23t27 61q0 39 -28.5 63t-70.5 24h-123v-171z
" />
    <glyph glyph-name="afii10068" unicode="&#x433;" horiz-adv-x="458" 
d="M399 500v-61h-250v-439h-63v500h313z" />
    <glyph glyph-name="afii10069" unicode="&#x434;" horiz-adv-x="629" 
d="M206 500h315v-438h49v-150h-62v89h-399v-89h-63v150h27q44 4 73 41.5t35 99.5zM458 62v377h-192l-22 -236q-10 -97 -55 -141h269z" />
    <glyph glyph-name="afii10070" unicode="&#x435;" horiz-adv-x="630" 
d="M480 98l44 -44q-66 -62 -184 -62q-53 0 -101 18.5t-85 51.5t-59.5 82t-22.5 106q0 107 75.5 182.5t182.5 75.5q117 0 187 -82q53 -62 45 -124q-7 -58 -66 -69q-11 -2 -24 -2h-329q0 -77 57 -128t137 -51q93 0 143 46zM144 289h304q32 0 42 22t-4 50q-15 35 -56 62
t-100 27q-50 0 -92 -22.5t-66.5 -59t-27.5 -79.5z" />
    <glyph glyph-name="afii10072" unicode="&#x436;" horiz-adv-x="872" 
d="M593 311l233 -311h-75l-201 265l-83 -82v-183h-62v183l-83 82l-202 -265h-74l233 311l-187 189h84l229 -227v227h62v-227l229 227h83z" />
    <glyph glyph-name="afii10073" unicode="&#x437;" horiz-adv-x="421" 
d="M97 409l-50 38q72 61 172 61q65 0 107.5 -34.5t42.5 -94.5q0 -43 -25.5 -75t-67.5 -45q45 -13 72 -48.5t27 -84.5q0 -63 -44 -99t-113 -36q-100 0 -171 57l43 44q46 -39 117 -39q47 0 75.5 22t28.5 62q0 39 -27.5 64t-73.5 25h-64v58h58q49 0 76 22t27 61q0 38 -28 59
t-70 21q-65 0 -112 -38z" />
    <glyph glyph-name="afii10074" unicode="&#x438;" horiz-adv-x="572" 
d="M419 500h67v-500h-63v402l-270 -402h-67v500h63v-402z" />
    <glyph glyph-name="afii10075" unicode="&#x439;" horiz-adv-x="572" 
d="M165 700h36q4 -19 16 -34.5t30 -24.5t38 -9q31 0 55 19t30 49h35q-3 -29 -20 -53t-43.5 -37.5t-56.5 -13.5q-46 0 -80 29.5t-40 74.5zM149 98l270 402h67v-500h-63v402l-270 -402h-67v500h63v-402z" />
    <glyph glyph-name="afii10076" unicode="&#x43a;" horiz-adv-x="556" 
d="M436 0l-202 265l-82 -82v-183h-63v500h63v-227l229 227h83l-186 -189l232 -311h-74z" />
    <glyph glyph-name="afii10077" unicode="&#x43b;" horiz-adv-x="590" 
d="M200 500h304v-500h-63v439h-190l-22 -235q-10 -100 -56.5 -154.5t-126.5 -54.5v58q47 -1 80 41t40 110l26 296h8z" />
    <glyph glyph-name="afii10078" unicode="&#x43c;" horiz-adv-x="701" 
d="M547 500h69v-500h-64v410l-201 -253l-202 253v-410h-63v500h69l196 -249z" />
    <glyph glyph-name="afii10079" unicode="&#x43d;" horiz-adv-x="565" 
d="M417 500h62v-500h-62v231h-268v-231h-63v499h63v-207h268v208z" />
    <glyph glyph-name="afii10080" unicode="&#x43e;" horiz-adv-x="662" 
d="M331 508q52 0 100 -20.5t83 -55t55.5 -82.5t20.5 -100q0 -107 -76 -182.5t-183 -75.5t-183 75.5t-76 182.5t76 182.5t183 75.5zM331 446q-82 0 -139 -57t-57 -139t57 -139t139 -57t139 57t57 139t-57 139t-139 57z" />
    <glyph glyph-name="afii10081" unicode="&#x43f;" horiz-adv-x="569" 
d="M86 500h397v-500h-63v438h-271v-438h-63v500z" />
    <glyph glyph-name="afii10082" unicode="&#x440;" horiz-adv-x="592" 
d="M143 500v-42q28 23 67 36.5t80 13.5q229 0 230 -254q1 -131 -59.5 -196.5t-170.5 -65.5q-77 1 -141 45v-215h-63v678h57zM149 402v-308q16 -13 38 -22.5t47 -14.5t50 -5q173 0 173 202q0 98 -40.5 147t-133.5 49q-37 0 -74 -13t-60 -35z" />
    <glyph glyph-name="afii10083" unicode="&#x441;" horiz-adv-x="559" 
d="M447 92l44 -44q-70 -55 -160 -55q-107 0 -183 75t-76 183q0 107 76 182t183 75q91 0 161 -56l-44 -44q-51 39 -117 39q-82 0 -139 -57t-57 -139q0 -33 9.5 -63t28 -54t42.5 -42t54 -28t62 -10q66 0 116 38z" />
    <glyph glyph-name="afii10084" unicode="&#x442;" horiz-adv-x="441" 
d="M395 500v-61h-143v-439h-62v438h-144v62h349z" />
    <glyph glyph-name="afii10085" unicode="&#x443;" horiz-adv-x="579" 
d="M445 500h63v-455q-3 -114 -56 -165.5t-169 -49.5q-108 1 -186 45l8 50q77 -40 178 -39q85 0 121.5 31.5t42.5 112.5v23q-70 -52 -157 -53q-113 -1 -167.5 65t-54.5 202v233h63v-233q0 -72 15.5 -116.5t53 -68t99.5 -23.5q74 0 146 48v393z" />
    <glyph glyph-name="afii10086" unicode="&#x444;" horiz-adv-x="950" 
d="M507 700v-237q60 45 141 45q229 0 230 -254q1 -88 -27 -147t-79 -87t-125 -28q-76 1 -140 45v-215h-63v215q-65 -44 -141 -45q-111 0 -171 65.5t-60 196.5q2 254 231 254q80 0 141 -45v237h63zM444 94v307q-23 23 -60 36t-75 13q-92 0 -132.5 -49t-40.5 -147
q0 -202 173 -202q37 0 74 11.5t61 30.5zM507 401v-307q24 -19 61 -30.5t74 -11.5q173 0 173 202q0 98 -40.5 147t-133.5 49q-24 0 -48.5 -5.5t-47.5 -16.5t-38 -27z" />
    <glyph glyph-name="afii10087" unicode="&#x445;" horiz-adv-x="503" 
d="M457 500l-165 -254l165 -246h-74l-134 201l-128 -201h-75l167 252l-167 248h75l135 -203l127 203h74z" />
    <glyph glyph-name="afii10088" unicode="&#x446;" horiz-adv-x="627" 
d="M488 61h78v-150h-61v89h-419v500h63v-439h276v439h63v-439z" />
    <glyph glyph-name="afii10089" unicode="&#x447;" horiz-adv-x="521" 
d="M372 500h63v-500h-63v177q-23 -17 -61 -28t-71 -11q-98 1 -139 47t-41 144v171h63v-159q0 -71 25.5 -104.5t97.5 -36.5q30 -3 68 8.5t58 28.5v263z" />
    <glyph glyph-name="afii10090" unicode="&#x448;" horiz-adv-x="861" 
d="M775 500v-500h-689v500h63v-438h250v438h63v-438h250v438h63z" />
    <glyph glyph-name="afii10091" unicode="&#x449;" horiz-adv-x="914" 
d="M775 61h78v-150h-61v89h-706v500h63v-439h250v439h63v-439h250v439h63v-439z" />
    <glyph glyph-name="afii10092" unicode="&#x44a;" horiz-adv-x="584" 
d="M233 280h132q67 0 107 -40t40 -102.5t-40.5 -102t-106.5 -39.5h-194v443h-100v61h162v-220zM234 57h129q37 0 61.5 22.5t24.5 58.5t-24.5 58.5t-61.5 22.5h-129v-162z" />
    <glyph glyph-name="afii10093" unicode="&#x44b;" horiz-adv-x="674" 
d="M149 280h132q67 0 107 -40t40 -102.5t-40.5 -102t-106.5 -39.5h-195v504h63v-220zM528 0v500h61v-500h-61zM150 57h129q37 0 61.5 22.5t24.5 58.5q0 12 -3 22.5t-8 19.5t-13 16.5t-17.5 12.5t-21 7.5t-23.5 2.5h-129v-162z" />
    <glyph glyph-name="afii10094" unicode="&#x44c;" horiz-adv-x="500" 
d="M149 280h132q67 0 107 -40t40 -102.5t-40.5 -102t-106.5 -39.5h-195v504h63v-220zM150 57h129q37 0 61.5 22.5t24.5 58.5q0 12 -3 22.5t-8 19.5t-13 16.5t-17.5 12.5t-21 7.5t-23.5 2.5h-129v-162z" />
    <glyph glyph-name="afii10095" unicode="&#x44d;" horiz-adv-x="559" 
d="M112 408l-45 44q71 56 162 56q70 0 129.5 -34t94 -93.5t34.5 -129.5q0 -108 -75.5 -183t-182.5 -75q-90 0 -161 55l45 45q51 -39 116 -39q73 0 127 47.5t63 118.5h-208v61h208q-6 46 -32.5 84t-68 60t-89.5 22q-66 0 -117 -39z" />
    <glyph glyph-name="afii10096" unicode="&#x44e;" horiz-adv-x="846" 
d="M149 281h111q11 96 84 161.5t172 65.5q52 0 100 -20.5t82.5 -55t55 -82.5t20.5 -100q0 -107 -75.5 -182.5t-182.5 -75.5q-99 0 -172 65.5t-84 162.5h-111v-220h-63v500h63v-219zM515.5 54q81.5 0 138.5 57t57 139q0 54 -26 99t-71 71t-98 26q-82 0 -139 -57t-57 -139
t57 -139t138.5 -57z" />
    <glyph glyph-name="afii10097" unicode="&#x44f;" horiz-adv-x="532" 
d="M259 500h187v-501h-62v221h-90l-145 -220h-71l148 224q-52 11 -83.5 47t-31.5 89q0 62 40.5 101t107.5 39zM384 281v158h-125q-24 0 -43 -9.5t-30.5 -27.5t-11.5 -42t11.5 -42.5t30.5 -27.5t43 -9h125z" />
    <glyph glyph-name="Wgrave" unicode="&#x1e80;" horiz-adv-x="1067" 
d="M429 900h84l68 -125h-59zM956 700h67l-233 -700h-72l-184 599l-186 -599h-70l-234 700h67l203 -598l183 598h74l183 -598z" />
    <glyph glyph-name="wgrave" unicode="&#x1e81;" horiz-adv-x="830" 
d="M332 700h84l68 -125h-59zM784 500l-168 -500h-65l-136 409l-136 -409h-64l-169 500h61l140 -408l136 408h65l136 -408l139 408h61z" />
    <glyph glyph-name="Wacute" unicode="&#x1e82;" horiz-adv-x="1067" 
d="M543 900h83l-92 -125h-59zM956 700h67l-233 -700h-72l-184 599l-186 -599h-70l-234 700h67l203 -598l183 598h74l183 -598z" />
    <glyph glyph-name="wacute" unicode="&#x1e83;" horiz-adv-x="830" 
d="M446 700h84l-93 -125h-59zM784 500l-168 -500h-65l-136 409l-136 -409h-64l-169 500h61l140 -408l136 408h65l136 -408l139 408h61z" />
    <glyph glyph-name="Wdieresis" unicode="&#x1e84;" horiz-adv-x="1067" 
d="M424 823q-17 0 -29.5 12t-12.5 29t12.5 29.5t29.5 12.5t29.5 -12.5t12.5 -29.5t-12.5 -29t-29.5 -12zM633 823q-17 0 -29 12t-12 29t12 29.5t29 12.5q18 0 30 -12.5t12 -29.5t-12 -29t-30 -12zM956 700h67l-233 -700h-72l-184 599l-186 -599h-70l-234 700h67l203 -598
l183 598h74l183 -598z" />
    <glyph glyph-name="wdieresis" unicode="&#x1e85;" horiz-adv-x="830" 
d="M312 623q-18 0 -30 12t-12 29t12 29.5t30 12.5q17 0 29 -12.5t12 -29.5t-12 -29t-29 -12zM521 623q-17 0 -29.5 12t-12.5 29t12.5 29.5t29.5 12.5t29.5 -12.5t12.5 -29.5t-12.5 -29t-29.5 -12zM784 500l-168 -500h-65l-136 409l-136 -409h-64l-169 500h61l140 -408
l136 408h65l136 -408l139 408h61z" />
    <glyph glyph-name="Ygrave" unicode="&#x1ef2;" horiz-adv-x="670" 
d="M331 775l-92 125h83l68 -125h-59zM556 700h70l-259 -407v-293h-64v293l-259 407h71l220 -346z" />
    <glyph glyph-name="ygrave" unicode="&#x1ef3;" horiz-adv-x="579" 
d="M200 700h84l68 -125h-59zM445 500h63v-455q-3 -114 -56 -165.5t-169 -49.5q-108 1 -186 45l8 50q77 -40 178 -39q85 0 121.5 31.5t42.5 112.5v23q-31 -23 -72.5 -38t-84.5 -15q-113 -1 -167.5 65t-54.5 202v233h63v-233q0 -72 15.5 -116.5t53 -68t99.5 -23.5q74 0 146 48
v393z" />
    <glyph glyph-name="endash" unicode="&#x2013;" horiz-adv-x="500" 
d="M50 299h400v-61h-400v61z" />
    <glyph glyph-name="emdash" unicode="&#x2014;" horiz-adv-x="654" 
d="M50 299h554v-61h-554v61z" />
    <glyph glyph-name="quoteleft" unicode="&#x2018;" horiz-adv-x="184" 
d="M132 709q-24 -18 -34 -39q15 -3 25 -14t10 -27q0 -11 -5.5 -20.5t-15 -15.5t-20.5 -6q-18 0 -30 12.5t-12 29.5q0 29 19 54.5t63 25.5z" />
    <glyph glyph-name="quoteright" unicode="&#x2019;" horiz-adv-x="184" 
d="M93 709q17 0 29 -12t12 -29q0 -9 -2.5 -20.5t-10 -26t-25.5 -24t-43 -9.5q23 17 33 39q-10 1 -18 7t-12.5 14.5t-4.5 19.5q0 17 12.5 29t29.5 12z" />
    <glyph glyph-name="quotesinglbase" unicode="&#x201a;" horiz-adv-x="184" 
d="M93 72q17 0 29 -12t12 -29q0 -12 -3.5 -24.5t-12 -25.5t-25.5 -21.5t-40 -8.5q23 18 33 39q-15 2 -25 13.5t-10 27.5q0 17 12.5 29t29.5 12z" />
    <glyph glyph-name="quotedblleft" unicode="&#x201c;" horiz-adv-x="305" 
d="M132 709q-24 -18 -34 -38q15 -3 25 -14.5t10 -27.5q0 -17 -12 -29t-29 -12t-29.5 12t-12.5 29q0 10 3 21t10.5 25.5t25 24t43.5 9.5zM253 709q-24 -18 -33 -38q15 -3 25 -14.5t10 -27.5q0 -17 -12.5 -29t-29.5 -12t-29.5 12t-12.5 29q0 10 3 21t10.5 25.5t25.5 24t43 9.5
z" />
    <glyph glyph-name="quotedblright" unicode="&#x201d;" horiz-adv-x="309" 
d="M93 709q17 0 29 -12t12 -29q0 -9 -2.5 -20.5t-10 -26t-25.5 -24t-43 -9.5q24 18 33 39q-10 1 -18 7t-12.5 14.5t-4.5 19.5q0 17 12.5 29t29.5 12zM214 709q17 0 29.5 -12t12.5 -29q0 -9 -3 -20.5t-10.5 -26t-25.5 -24t-43 -9.5q24 18 34 39q-15 2 -25 13.5t-10 27.5
q0 17 12 29t29 12z" />
    <glyph glyph-name="quotedblbase" unicode="&#x201e;" horiz-adv-x="305" 
d="M93 75q17 0 29 -12.5t12 -29.5q0 -9 -2.5 -20t-10 -25.5t-25.5 -24t-43 -9.5q23 17 33 38q-15 2 -25 13.5t-10 27.5q0 17 12.5 29.5t29.5 12.5zM214 74q17 0 29.5 -12t12.5 -29q0 -9 -3 -20t-10.5 -25.5t-25.5 -24t-43 -9.5q23 17 34 38q-15 2 -25 13.5t-10 27.5
q0 17 12 29t29 12z" />
    <glyph glyph-name="dagger" unicode="&#x2020;" horiz-adv-x="373" 
d="M156 686h62v-187h105v-61h-105v-494h-62v494h-106v61h106v187z" />
    <glyph glyph-name="daggerdbl" unicode="&#x2021;" horiz-adv-x="373" 
d="M156 686h62v-187h105v-61h-105v-246h105v-61h-105v-187h-62v187h-106v61h106v246h-106v61h106v187z" />
    <glyph glyph-name="bullet" unicode="&#x2022;" horiz-adv-x="361" 
d="M180.5 304q4.5 0 4.5 -3q0 -4 -4.5 -4t-4.5 4q0 3 4.5 3z" />
    <glyph glyph-name="ellipsis" unicode="&#x2026;" horiz-adv-x="573" 
d="M92 73q17 0 29 -12t12 -30q0 -17 -12 -29t-29.5 -12t-29.5 12t-12 29q0 18 12.5 30t29.5 12zM286.5 73q17.5 0 29.5 -12t12 -30q0 -17 -12 -29t-29.5 -12t-29.5 12t-12 29q0 18 12 30t29.5 12zM481.5 73q17.5 0 29.5 -12t12 -30q0 -17 -12 -29t-29.5 -12t-29.5 12t-12 29
q0 18 12 30t29.5 12z" />
    <glyph glyph-name="perthousand" unicode="&#x2030;" horiz-adv-x="1039" 
d="M194 709q56 0 96 -40t40 -96.5t-40 -96t-96 -39.5q-37 0 -68.5 18t-49.5 49.5t-18 68.5q0 56 40 96t96 40zM530 700h58l-406 -700h-59zM194 657q-24 0 -43.5 -10.5t-30 -30t-10.5 -43.5q0 -37 23.5 -61t60.5 -24t61 24t24 61t-24 60.5t-61 23.5zM520.5 264
q56.5 0 96.5 -40t40 -96.5t-40 -96.5t-96.5 -40t-96.5 40t-40 96.5t40 96.5t96.5 40zM825.5 263q56.5 0 96 -40t39.5 -96t-39.5 -96t-96 -40t-96.5 40t-40 96t40 96t96.5 40zM521 212q-37 0 -61 -24t-24 -61t24 -61t61 -24t60.5 24t23.5 61t-23.5 61t-60.5 24zM825 211
q-37 0 -60.5 -23.5t-23.5 -60.5q0 -24 10.5 -43.5t30 -30.5t43.5 -11q37 0 61 24t24 61q0 18 -6.5 34t-17.5 27t-27 17t-34 6z" />
    <glyph glyph-name="guilsinglleft" unicode="&#x2039;" horiz-adv-x="267" 
d="M50 308l167 120v-68l-120 -80l120 -80v-68l-167 119v57z" />
    <glyph glyph-name="guilsinglright" unicode="&#x203a;" horiz-adv-x="267" 
d="M50 360v68l167 -120v-57l-167 -119v68l120 80z" />
    <glyph glyph-name="fraction" unicode="&#x2044;" horiz-adv-x="480" 
d="M50 0l315 700h65l-315 -700h-65z" />
    <glyph glyph-name="Euro" unicode="&#x20ac;" horiz-adv-x="857" 
d="M545 257h-246q15 -44 42 -81.5t63.5 -64.5t82 -42.5t93.5 -15.5q99 0 179 60l44 -45q-97 -77 -223 -77q-123 0 -220 74.5t-128 191.5h-164l45 45h110q-3 24 -3 48q0 22 3 44h-154l46 45h116q30 118 127 194t222 76q127 0 224 -79l-44 -44q-79 60 -180 60
q-102 0 -179.5 -56t-104.5 -151h431l-44 -45h-396q-3 -21 -3 -44q0 -25 4 -48h302z" />
    <glyph glyph-name="trademark" unicode="&#x2122;" horiz-adv-x="891" 
d="M773 700h68v-406h-63v322l-164 -205l-163 205v-322h-64v406h69l158 -201zM50 700h299v-61h-118v-345h-63v344h-118v62z" />
    <glyph glyph-name="partialdiff" unicode="&#x2202;" horiz-adv-x="600" 
 />
    <glyph glyph-name="emptyset" unicode="&#x2205;" horiz-adv-x="654" 
d="M585 465l-56 -56q57 -69 57 -159q0 -107 -76 -182.5t-183 -75.5q-89 0 -159 56l-57 -57l-43 43l57 57q-56 69 -56 159q0 107 75.5 182.5t182.5 75.5q89 0 159 -56l56 56zM172 138l268 268q-49 40 -113 40q-81 0 -138 -57t-57 -139q0 -64 40 -112zM483 363l-269 -269
q49 -40 113 -40q82 0 139 57t57 139q0 64 -40 113z" />
    <glyph glyph-name="product" unicode="&#x220f;" horiz-adv-x="600" 
 />
    <glyph glyph-name="summation" unicode="&#x2211;" horiz-adv-x="600" 
 />
    <glyph glyph-name="minus" unicode="&#x2212;" horiz-adv-x="539" 
d="M50 339h439v-61h-439v61z" />
    <glyph glyph-name="radical" unicode="&#x221a;" horiz-adv-x="600" 
 />
    <glyph glyph-name="infinity" unicode="&#x221e;" horiz-adv-x="600" 
 />
    <glyph glyph-name="integral" unicode="&#x222b;" horiz-adv-x="600" 
 />
    <glyph glyph-name="approxequal" unicode="&#x2248;" horiz-adv-x="467" 
d="M417 414v-69l-35 -35q-46 -46 -125 1l-61 35q-62 36 -97 1l-49 -49v70l35 35q46 46 125 -1l61 -36q62 -35 97 0zM417 265v-70l-35 -35q-46 -45 -125 1l-61 36q-61 36 -97 0l-49 -48v69l35 35q46 46 125 -1l61 -35q62 -36 97 -1z" />
    <glyph glyph-name="notequal" unicode="&#x2260;" horiz-adv-x="539" 
d="M489 365h-157l-46 -101h203v-61h-230l-92 -203h-65l92 203h-144v61h171l46 101h-217v61h244l89 197h65l-89 -197h130v-61z" />
    <glyph glyph-name="lessequal" unicode="&#x2264;" horiz-adv-x="450" 
d="M62 368l326 196v-74l-244 -144l244 -143v-74l-326 197v42zM62 0v61h326v-61h-326z" />
    <glyph glyph-name="greaterequal" unicode="&#x2265;" horiz-adv-x="422" 
d="M50 490v74l326 -196v-42l-326 -197v74l244 143zM50 61h326v-61h-326v61z" />
    <glyph glyph-name="lozenge" unicode="&#x25ca;" horiz-adv-x="600" 
 />
    <glyph glyph-name="two.dnom" horiz-adv-x="323" 
d="M89 264l-33 33q47 42 107 44q45 2 76 -23q36 -26 33 -73q0 -18 -6.5 -31t-20 -23.5t-25 -16t-33.5 -14.5q-38 -16 -57 -37.5t-19 -69.5h160v-53h-218v34q0 33 6.5 59.5t16 42.5t25 29t27 19t29.5 13q3 1 10 3.5t10 4t8.5 3.5t8.5 4t7 4.5t6 5.5t4.5 6.5t3.5 8t2 9.5
q1 22 -17 35q-15 11 -39 11q-41 -1 -72 -28z" />
    <glyph glyph-name="four.dnom" horiz-adv-x="348" 
d="M273 131h25v-50h-25v-81h-56v81h-167v53l160 204h63v-207zM217 131v148l-114 -148h114z" />
    <glyph glyph-name="one.numr" horiz-adv-x="156" 
d="M50 362v338h56v-338h-56z" />
    <glyph glyph-name="three.numr" horiz-adv-x="317" 
d="M83 635l-33 33q50 38 110 38q45 0 74.5 -23.5t29.5 -64.5q0 -20 -8 -36.5t-22 -27.5t-33 -15q30 -5 48.5 -28.5t18.5 -59.5q0 -41 -29.5 -65t-79.5 -26q-59 0 -109 39l33 33q32 -23 69 -23q25 -1 42 12.5t17 37.5q0 25 -16.5 39t-46.5 16h-32v48h31q28 0 43.5 14t15.5 37
q0 22 -15 34.5t-38 12.5q-37 0 -70 -25z" />
    </font>
</defs>
</svg>
